<?xml version="1.0" encoding="UTF-8" standalone="no"?><!DOCTYPE svg PUBLIC "-//W3C//DTD SVG 1.1//EN" "http://www.w3.org/Graphics/SVG/1.1/DTD/svg11.dtd"><!-- Generated by graphviz version 2.40.1 (20161225.0304)
 --><!-- Title: G Pages: 1 --><svg xmlns="http://www.w3.org/2000/svg" xmlns:xlink="http://www.w3.org/1999/xlink" width="443pt" height="287pt" viewBox="0.00 0.00 442.86 287.00">
<g id="graph0" class="graph" transform="scale(1 1) rotate(0) translate(4 283)">
<title>G</title>
<polygon fill="#ffffff" stroke="transparent" points="-4,4 -4,-283 438.864,-283 438.864,4 -4,4"/>
<g id="clust1" class="cluster">
<title>cluster_0</title>
<polygon fill="#d3d3d3" stroke="#d3d3d3" points="0,-142 0,-271 95,-271 95,-142 0,-142"/>
<text text-anchor="middle" x="47.5" y="-258" font-family="Times,serif" font-size="10.00" fill="#000000">Operational System</text>
</g>
<g id="clust2" class="cluster">
<title>cluster_1</title>
<polygon fill="none" stroke="#0000ff" points="175.864,-142 175.864,-271 426.864,-271 426.864,-142 175.864,-142"/>
<text text-anchor="middle" x="301.364" y="-258" font-family="Times,serif" font-size="10.00" fill="#000000">Data Ingestion</text>
</g>
<g id="clust3" class="cluster">
<title>cluster_2</title>
<polygon fill="none" stroke="#0000ff" points="350.864,-8 350.864,-80 432.864,-80 432.864,-8 350.864,-8"/>
<text text-anchor="middle" x="391.864" y="-67" font-family="Times,serif" font-size="10.00" fill="#000000">Data Warehouse</text>
</g>
<g id="clust4" class="cluster">
<title>cluster_3</title>
<polygon fill="none" stroke="#0000ff" points="266.864,-8 266.864,-134 329.864,-134 329.864,-8 266.864,-8"/>
<text text-anchor="middle" x="298.364" y="-121" font-family="Times,serif" font-size="10.00" fill="#000000">Astronomer</text>
</g>
<!-- mural_api -->
<g id="node1" class="node">
<title>mural_api</title>
<path fill="#ffffff" stroke="#ffffff" d="M32,-206C32,-206 62,-206 62,-206 68,-206 74,-212 74,-218 74,-218 74,-230 74,-230 74,-236 68,-242 62,-242 62,-242 32,-242 32,-242 26,-242 20,-236 20,-230 20,-230 20,-218 20,-218 20,-212 26,-206 32,-206"/>
<text text-anchor="middle" x="47" y="-221.8" font-family="Times,serif" font-size="8.00" fill="#000000">Mural API</text>
</g>
<!-- segment_io -->
<g id="node3" class="node">
<title>segment_io</title>
<path fill="#add8e6" stroke="#add8e6" d="M195.864,-206C195.864,-206 225.864,-206 225.864,-206 231.864,-206 237.864,-212 237.864,-218 237.864,-218 237.864,-230 237.864,-230 237.864,-236 231.864,-242 225.864,-242 225.864,-242 195.864,-242 195.864,-242 189.864,-242 183.864,-236 183.864,-230 183.864,-230 183.864,-218 183.864,-218 183.864,-212 189.864,-206 195.864,-206"/>
<text text-anchor="middle" x="210.864" y="-221.8" font-family="Times,serif" font-size="8.00" fill="#000000">segment.io</text>
</g>
<!-- mural_api&#45;&gt;segment_io -->
<g id="edge3" class="edge">
<title>mural_api-&gt;segment_io</title>
<path fill="none" stroke="#000000" d="M74.0588,-224C101.218,-224 143.2652,-224 173.5766,-224"/>
<polygon fill="#000000" stroke="#000000" points="173.765,-227.5001 183.765,-224 173.765,-220.5001 173.765,-227.5001"/>
<text text-anchor="middle" x="135.432" y="-226.4" font-family="Times,serif" font-size="8.00" fill="#000000">entity data (daily) </text>
</g>
<!-- mongo_db -->
<g id="node2" class="node">
<title>mongo_db</title>
<path fill="#ffffff" stroke="#ffffff" d="M32,-151C32,-151 62,-151 62,-151 68,-151 74,-157 74,-163 74,-163 74,-175 74,-175 74,-181 68,-187 62,-187 62,-187 32,-187 32,-187 26,-187 20,-181 20,-175 20,-175 20,-163 20,-163 20,-157 26,-151 32,-151"/>
<text text-anchor="middle" x="47" y="-166.8" font-family="Times,serif" font-size="8.00" fill="#000000">Mongo DB</text>
</g>
<!-- mongo_export -->
<g id="node4" class="node">
<title>mongo_export</title>
<path fill="#add8e6" stroke="#add8e6" d="M195.864,-151C195.864,-151 225.864,-151 225.864,-151 231.864,-151 237.864,-157 237.864,-163 237.864,-163 237.864,-175 237.864,-175 237.864,-181 231.864,-187 225.864,-187 225.864,-187 195.864,-187 195.864,-187 189.864,-187 183.864,-181 183.864,-175 183.864,-175 183.864,-163 183.864,-163 183.864,-157 189.864,-151 195.864,-151"/>
<text text-anchor="middle" x="210.864" y="-166.8" font-family="Times,serif" font-size="8.00" fill="#000000">Mongo Export</text>
</g>
<!-- mongo_db&#45;&gt;mongo_export -->
<g id="edge1" class="edge">
<title>mongo_db-&gt;mongo_export</title>
<path fill="none" stroke="#000000" d="M74.0588,-169C101.218,-169 143.2652,-169 173.5766,-169"/>
<polygon fill="#000000" stroke="#000000" points="173.765,-172.5001 183.765,-169 173.765,-165.5001 173.765,-172.5001"/>
<text text-anchor="middle" x="135.432" y="-171.4" font-family="Times,serif" font-size="8.00" fill="#000000">event data (hourly)</text>
</g>
<!-- staging -->
<g id="node5" class="node">
<title>staging</title>
<path fill="#add8e6" stroke="#add8e6" d="M418.864,-182.7273C418.864,-184.5331 406.7622,-186 391.864,-186 376.9658,-186 364.864,-184.5331 364.864,-182.7273 364.864,-182.7273 364.864,-153.2727 364.864,-153.2727 364.864,-151.4669 376.9658,-150 391.864,-150 406.7622,-150 418.864,-151.4669 418.864,-153.2727 418.864,-153.2727 418.864,-182.7273 418.864,-182.7273"/>
<path fill="none" stroke="#add8e6" d="M418.864,-182.7273C418.864,-180.9214 406.7622,-179.4545 391.864,-179.4545 376.9658,-179.4545 364.864,-180.9214 364.864,-182.7273"/>
<text text-anchor="middle" x="391.864" y="-170.4" font-family="Times,serif" font-size="8.00" fill="#000000">Staging</text>
<text text-anchor="middle" x="391.864" y="-160.8" font-family="Times,serif" font-size="8.00" fill="#000000">Schema</text>
</g>
<!-- segment_io&#45;&gt;staging -->
<g id="edge4" class="edge">
<title>segment_io-&gt;staging</title>
<path fill="none" stroke="#000000" d="M237.9615,-215.6162C269.018,-206.0076 320.0933,-190.2053 354.8126,-179.4634"/>
<polygon fill="#000000" stroke="#000000" points="356.0625,-182.7405 364.5812,-176.4411 353.9935,-176.0532 356.0625,-182.7405"/>
</g>
<!-- ingestion -->
<g id="node8" class="node">
<title>ingestion</title>
<ellipse fill="#d3d3d3" stroke="#000000" cx="297.864" cy="-88" rx="18" ry="18"/>
<text text-anchor="middle" x="297.864" y="-85.6" font-family="Times,serif" font-size="8.00" fill="#000000">Ingestion</text>
</g>
<!-- mongo_export&#45;&gt;ingestion -->
<g id="edge2" class="edge">
<title>mongo_export-&gt;ingestion</title>
<path fill="none" stroke="#000000" d="M230.6056,-150.6198C244.5649,-137.6233 263.2326,-120.243 277.3593,-107.0905"/>
<polygon fill="#000000" stroke="#000000" points="279.7476,-109.6491 284.6816,-100.2733 274.9776,-104.5259 279.7476,-109.6491"/>
</g>
<!-- ETL -->
<g id="node7" class="node">
<title>ETL</title>
<ellipse fill="#d3d3d3" stroke="#000000" cx="297.864" cy="-34" rx="18" ry="18"/>
<text text-anchor="middle" x="297.864" y="-36.4" font-family="Times,serif" font-size="8.00" fill="#000000">ETL</text>
<text text-anchor="middle" x="297.864" y="-26.8" font-family="Times,serif" font-size="8.00" fill="#000000">DBT</text>
</g>
<!-- staging&#45;&gt;ETL -->
<g id="edge6" class="edge">
<title>staging-&gt;ETL</title>
<path fill="none" stroke="#000000" d="M383.697,-149.7509C373.1875,-127.4265 353.4464,-89.1374 329.864,-61 327.0275,-57.6156 323.7352,-54.317 320.3632,-51.2541"/>
<polygon fill="#000000" stroke="#000000" points="322.4168,-48.4065 312.5273,-44.6055 317.888,-53.7441 322.4168,-48.4065"/>
</g>
<!-- redshift -->
<g id="node6" class="node">
<title>redshift</title>
<path fill="#d3d3d3" stroke="#000000" d="M418.864,-48.7273C418.864,-50.5331 406.7622,-52 391.864,-52 376.9658,-52 364.864,-50.5331 364.864,-48.7273 364.864,-48.7273 364.864,-19.2727 364.864,-19.2727 364.864,-17.4669 376.9658,-16 391.864,-16 406.7622,-16 418.864,-17.4669 418.864,-19.2727 418.864,-19.2727 418.864,-48.7273 418.864,-48.7273"/>
<path fill="none" stroke="#000000" d="M418.864,-48.7273C418.864,-46.9214 406.7622,-45.4545 391.864,-45.4545 376.9658,-45.4545 364.864,-46.9214 364.864,-48.7273"/>
<text text-anchor="middle" x="391.864" y="-31.6" font-family="Times,serif" font-size="8.00" fill="#000000">Redshift</text>
</g>
<!-- ETL&#45;&gt;redshift -->
<g id="edge7" class="edge">
<title>ETL-&gt;redshift</title>
<path fill="none" stroke="#000000" d="M315.9881,-34C326.8491,-34 341.0688,-34 354.2593,-34"/>
<polygon fill="#000000" stroke="#000000" points="354.5333,-37.5001 364.5332,-34 354.5332,-30.5001 354.5333,-37.5001"/>
</g>
<!-- ingestion&#45;&gt;staging -->
<g id="edge5" class="edge">
<title>ingestion-&gt;staging</title>
<path fill="none" stroke="#000000" d="M311.734,-99.8043C325.2515,-111.3085 346.208,-129.1438 363.2994,-143.6897"/>
<polygon fill="#000000" stroke="#000000" points="361.4459,-146.7082 371.3297,-150.524 365.9827,-141.3774 361.4459,-146.7082"/>
</g>
</g>
</svg>