<?xml version="1.0" encoding="UTF-8" standalone="no"?><!DOCTYPE svg PUBLIC "-//W3C//DTD SVG 1.1//EN" "http://www.w3.org/Graphics/SVG/1.1/DTD/svg11.dtd"><!-- Generated by graphviz version 2.40.1 (20161225.0304)
 --><!-- Title: G Pages: 1 --><svg xmlns="http://www.w3.org/2000/svg" xmlns:xlink="http://www.w3.org/1999/xlink" width="521pt" height="153pt" viewBox="0.00 0.00 520.51 153.00">
<g id="graph0" class="graph" transform="scale(1 1) rotate(0) translate(4 149)">
<title>G</title>
<polygon fill="#ffffff" stroke="transparent" points="-4,4 -4,-149 516.5056,-149 516.5056,4 -4,4"/>
<g id="clust1" class="cluster">
<title>cluster_0</title>
<polygon fill="#d3d3d3" stroke="#d3d3d3" points="0,-8 0,-137 95,-137 95,-8 0,-8"/>
<text text-anchor="middle" x="47.5" y="-124" font-family="Times,serif" font-size="10.00" fill="#000000">Operational System</text>
</g>
<g id="clust2" class="cluster">
<title>cluster_1</title>
<polygon fill="none" stroke="#0000ff" points="175.864,-8 175.864,-137 383.7488,-137 383.7488,-8 175.864,-8"/>
<text text-anchor="middle" x="279.8064" y="-124" font-family="Times,serif" font-size="10.00" fill="#000000">Data Collection</text>
</g>
<g id="clust3" class="cluster">
<title>cluster_2</title>
<polygon fill="none" stroke="#0000ff" points="404.7488,-30 404.7488,-104 504.5056,-104 504.5056,-30 404.7488,-30"/>
<text text-anchor="middle" x="454.6272" y="-91" font-family="Times,serif" font-size="10.00" fill="#000000">Data Warehouse</text>
</g>
<!-- a0 -->
<g id="node1" class="node">
<title>a0</title>
<path fill="#ffffff" stroke="#ffffff" d="M32,-17C32,-17 62,-17 62,-17 68,-17 74,-23 74,-29 74,-29 74,-41 74,-41 74,-47 68,-53 62,-53 62,-53 32,-53 32,-53 26,-53 20,-47 20,-41 20,-41 20,-29 20,-29 20,-23 26,-17 32,-17"/>
<text text-anchor="middle" x="47" y="-32.8" font-family="Times,serif" font-size="8.00" fill="#000000">Mural API</text>
</g>
<!-- b0 -->
<g id="node3" class="node">
<title>b0</title>
<path fill="#add8e6" stroke="#add8e6" d="M200.3064,-17C200.3064,-17 230.3064,-17 230.3064,-17 236.3064,-17 242.3064,-23 242.3064,-29 242.3064,-29 242.3064,-41 242.3064,-41 242.3064,-47 236.3064,-53 230.3064,-53 230.3064,-53 200.3064,-53 200.3064,-53 194.3064,-53 188.3064,-47 188.3064,-41 188.3064,-41 188.3064,-29 188.3064,-29 188.3064,-23 194.3064,-17 200.3064,-17"/>
<text text-anchor="middle" x="215.3064" y="-32.8" font-family="Times,serif" font-size="8.00" fill="#000000">segment.io</text>
</g>
<!-- a0&#45;&gt;b0 -->
<g id="edge4" class="edge">
<title>a0-&gt;b0</title>
<path fill="none" stroke="#000000" d="M74.0413,-35C102.1758,-35 146.4358,-35 177.9109,-35"/>
<polygon fill="#000000" stroke="#000000" points="178.0532,-38.5001 188.0531,-35 178.0531,-31.5001 178.0532,-38.5001"/>
<text text-anchor="middle" x="135.432" y="-37.4" font-family="Times,serif" font-size="8.00" fill="#000000">entity data (daily) </text>
</g>
<!-- a1 -->
<g id="node2" class="node">
<title>a1</title>
<path fill="#ffffff" stroke="#ffffff" d="M32,-72C32,-72 62,-72 62,-72 68,-72 74,-78 74,-84 74,-84 74,-96 74,-96 74,-102 68,-108 62,-108 62,-108 32,-108 32,-108 26,-108 20,-102 20,-96 20,-96 20,-84 20,-84 20,-78 26,-72 32,-72"/>
<text text-anchor="middle" x="47" y="-87.8" font-family="Times,serif" font-size="8.00" fill="#000000">Mongo DB</text>
</g>
<!-- b1 -->
<g id="node4" class="node">
<title>b1</title>
<path fill="#add8e6" stroke="#add8e6" d="M195.864,-72C195.864,-72 234.7488,-72 234.7488,-72 240.7488,-72 246.7488,-78 246.7488,-84 246.7488,-84 246.7488,-96 246.7488,-96 246.7488,-102 240.7488,-108 234.7488,-108 234.7488,-108 195.864,-108 195.864,-108 189.864,-108 183.864,-102 183.864,-96 183.864,-96 183.864,-84 183.864,-84 183.864,-78 189.864,-72 195.864,-72"/>
<text text-anchor="middle" x="215.3064" y="-87.8" font-family="Times,serif" font-size="8.00" fill="#000000">Mongo Export</text>
</g>
<!-- a1&#45;&gt;b1 -->
<g id="edge1" class="edge">
<title>a1-&gt;b1</title>
<path fill="none" stroke="#000000" d="M74.0413,-90C100.9235,-90 142.5277,-90 173.6345,-90"/>
<polygon fill="#000000" stroke="#000000" points="173.745,-93.5001 183.7449,-90 173.7449,-86.5001 173.745,-93.5001"/>
<text text-anchor="middle" x="135.432" y="-92.4" font-family="Times,serif" font-size="8.00" fill="#000000">event data (hourly)</text>
</g>
<!-- b4 -->
<g id="node6" class="node">
<title>b4</title>
<path fill="#d3d3d3" stroke="#000000" d="M424.7488,-39C424.7488,-39 484.5056,-39 484.5056,-39 490.5056,-39 496.5056,-45 496.5056,-51 496.5056,-51 496.5056,-63 496.5056,-63 496.5056,-69 490.5056,-75 484.5056,-75 484.5056,-75 424.7488,-75 424.7488,-75 418.7488,-75 412.7488,-69 412.7488,-63 412.7488,-63 412.7488,-51 412.7488,-51 412.7488,-45 418.7488,-39 424.7488,-39"/>
<text text-anchor="middle" x="454.6272" y="-59.8" font-family="Times,serif" font-size="8.00" fill="#000000">Redshift to </text>
<text text-anchor="middle" x="454.6272" y="-50.2" font-family="Times,serif" font-size="8.00" fill="#000000">Databricks migration</text>
</g>
<!-- b0&#45;&gt;b4 -->
<g id="edge5" class="edge">
<title>b0-&gt;b4</title>
<path fill="none" stroke="#000000" d="M242.7595,-37.5237C281.617,-41.0957 353.39,-47.6936 402.5382,-52.2116"/>
<polygon fill="#000000" stroke="#000000" points="402.3841,-55.7121 412.6626,-53.1423 403.025,-48.7415 402.3841,-55.7121"/>
</g>
<!-- b2 -->
<g id="node5" class="node">
<title>b2</title>
<path fill="#add8e6" stroke="#add8e6" d="M333.7488,-70C333.7488,-70 363.7488,-70 363.7488,-70 369.7488,-70 375.7488,-76 375.7488,-82 375.7488,-82 375.7488,-94 375.7488,-94 375.7488,-100 369.7488,-106 363.7488,-106 363.7488,-106 333.7488,-106 333.7488,-106 327.7488,-106 321.7488,-100 321.7488,-94 321.7488,-94 321.7488,-82 321.7488,-82 321.7488,-76 327.7488,-70 333.7488,-70"/>
<text text-anchor="middle" x="348.7488" y="-85.8" font-family="Times,serif" font-size="8.00" fill="#000000">ELT</text>
</g>
<!-- b1&#45;&gt;b2 -->
<g id="edge2" class="edge">
<title>b1-&gt;b2</title>
<path fill="none" stroke="#000000" d="M246.9304,-89.526C266.226,-89.2368 290.9964,-88.8656 311.2738,-88.5617"/>
<polygon fill="#000000" stroke="#000000" points="311.4688,-92.0592 321.4152,-88.4097 311.3638,-85.06 311.4688,-92.0592"/>
</g>
<!-- b2&#45;&gt;b4 -->
<g id="edge3" class="edge">
<title>b2-&gt;b4</title>
<path fill="none" stroke="#000000" d="M376.0151,-80.0167C384.2916,-77.5935 393.6726,-74.8468 402.9994,-72.116"/>
<polygon fill="#000000" stroke="#000000" points="404.037,-75.4593 412.6506,-69.2903 402.07,-68.7413 404.037,-75.4593"/>
</g>
</g>
</svg>