<?xml version="1.0" encoding="UTF-8" standalone="no"?><!DOCTYPE svg PUBLIC "-//W3C//DTD SVG 1.1//EN" "http://www.w3.org/Graphics/SVG/1.1/DTD/svg11.dtd"><!-- Generated by graphviz version 2.40.1 (20161225.0304)
 --><!-- Title: G Pages: 1 --><svg xmlns="http://www.w3.org/2000/svg" xmlns:xlink="http://www.w3.org/1999/xlink" width="580pt" height="408pt" viewBox="0.00 0.00 579.74 408.00">
<g id="graph0" class="graph" transform="scale(1 1) rotate(0) translate(4 404)">
<title>G</title>
<polygon fill="#ffffff" stroke="transparent" points="-4,4 -4,-404 575.7401,-404 575.7401,4 -4,4"/>
<!-- Event -->
<g id="node1" class="node">
<title>Event</title>
<polygon fill="#add8e6" stroke="transparent" points="151,-188 151,-204 193,-204 193,-188 151,-188"/>
<polygon fill="none" stroke="#000000" points="151,-188 151,-204 193,-204 193,-188 151,-188"/>
<text text-anchor="start" x="166.1683" y="-194.5" font-family="Times,serif" font-size="5.00" fill="#000000">Event</text>
<polygon fill="none" stroke="#000000" points="151,-172 151,-188 193,-188 193,-172 151,-172"/>
<text text-anchor="start" x="155.6855" y="-178.5" font-family="Times,serif" font-size="5.00" fill="#000000">Event Date/time</text>
<polygon fill="none" stroke="#000000" points="151,-156 151,-172 193,-172 193,-156 151,-156"/>
<text text-anchor="start" x="156" y="-162.5" font-family="Times,serif" font-size="5.00" fill="#000000">User ID</text>
<polygon fill="none" stroke="#000000" points="151,-140 151,-156 193,-156 193,-140 151,-140"/>
<text text-anchor="start" x="156" y="-146.5" font-family="Times,serif" font-size="5.00" fill="#000000">Workspace ID</text>
<polygon fill="none" stroke="#000000" points="151,-124 151,-140 193,-140 193,-124 151,-124"/>
<text text-anchor="start" x="156" y="-130.5" font-family="Times,serif" font-size="5.00" fill="#000000">Board ID</text>
<polygon fill="none" stroke="#000000" points="151,-108 151,-124 193,-124 193,-108 151,-108"/>
<text text-anchor="start" x="156" y="-114.5" font-family="Times,serif" font-size="5.00" fill="#000000">Event...</text>
</g>
<!-- Transformation -->
<g id="node7" class="node">
<title>Transformation</title>
<ellipse fill="#add8e6" stroke="#000000" cx="253" cy="-156" rx="18" ry="18"/>
<text text-anchor="middle" x="253" y="-154.5" font-family="Times,serif" font-size="5.00" fill="#000000">Transformation</text>
</g>
<!-- Event&#45;&gt;Transformation -->
<g id="edge6" class="edge">
<title>Event-&gt;Transformation</title>
<path fill="none" stroke="#000000" d="M199.4229,-156C207.4647,-156 216.2772,-156 224.3909,-156"/>
<polygon fill="#000000" stroke="#000000" points="224.5312,-159.5001 234.5312,-156 224.5311,-152.5001 224.5312,-159.5001"/>
</g>
<!-- Workspace -->
<g id="node2" class="node">
<title>Workspace</title>
<polygon fill="#add8e6" stroke="transparent" points=".5,-384 .5,-400 109.5,-400 109.5,-384 .5,-384"/>
<polygon fill="none" stroke="#000000" points=".5,-384 .5,-400 109.5,-400 109.5,-384 .5,-384"/>
<text text-anchor="start" x="43.7565" y="-390.5" font-family="Times,serif" font-size="5.00" fill="#000000">Workspace</text>
<polygon fill="#add8e6" stroke="transparent" points=".5,-368 .5,-384 39.5,-384 39.5,-368 .5,-368"/>
<polygon fill="none" stroke="#000000" points=".5,-368 .5,-384 39.5,-384 39.5,-368 .5,-368"/>
<text text-anchor="start" x="11.9432" y="-374.5" font-family="Times,serif" font-size="5.00" fill="#000000">Column</text>
<polygon fill="#add8e6" stroke="transparent" points="39.5,-368 39.5,-384 109.5,-384 109.5,-368 39.5,-368"/>
<polygon fill="none" stroke="#000000" points="39.5,-368 39.5,-384 109.5,-384 109.5,-368 39.5,-368"/>
<text text-anchor="start" x="64.6388" y="-374.5" font-family="Times,serif" font-size="5.00" fill="#000000">Comment</text>
<polygon fill="none" stroke="#000000" points=".5,-352 .5,-368 39.5,-368 39.5,-352 .5,-352"/>
<text text-anchor="start" x="5.4945" y="-358.5" font-family="Times,serif" font-size="5.00" fill="#000000">Workspace ID</text>
<polygon fill="none" stroke="#000000" points="39.5,-352 39.5,-368 109.5,-368 109.5,-352 39.5,-352"/>
<polygon fill="none" stroke="#000000" points=".5,-336 .5,-352 39.5,-352 39.5,-336 .5,-336"/>
<text text-anchor="start" x="5.5" y="-342.5" font-family="Times,serif" font-size="5.00" fill="#000000">company</text>
<polygon fill="none" stroke="#000000" points="39.5,-336 39.5,-352 109.5,-352 109.5,-336 39.5,-336"/>
<polygon fill="none" stroke="#000000" points=".5,-320 .5,-336 39.5,-336 39.5,-320 .5,-320"/>
<text text-anchor="start" x="5.5" y="-326.5" font-family="Times,serif" font-size="5.00" fill="#000000">plan type</text>
<polygon fill="none" stroke="#000000" points="39.5,-320 39.5,-336 109.5,-336 109.5,-320 39.5,-320"/>
<text text-anchor="start" x="44.3045" y="-326.5" font-family="Times,serif" font-size="5.00" fill="#000000">Allowable values - paid, free..</text>
<polygon fill="none" stroke="#000000" points=".5,-304 .5,-320 39.5,-320 39.5,-304 .5,-304"/>
<text text-anchor="start" x="5.5" y="-310.5" font-family="Times,serif" font-size="5.00" fill="#000000">...</text>
<polygon fill="none" stroke="#000000" points="39.5,-304 39.5,-320 109.5,-320 109.5,-304 39.5,-304"/>
<text text-anchor="start" x="44.5" y="-310.5" font-family="Times,serif" font-size="5.00" fill="#000000">...</text>
</g>
<!-- Workspace&#45;&gt;Event -->
<g id="edge1" class="edge">
<title>Workspace-&gt;Event</title>
<path fill="none" stroke="#000000" d="M102.6013,-303.7868C104.8565,-300.8878 107.0069,-297.9495 109,-295 125.9773,-269.8762 140.366,-239.4358 151.0876,-213.4535"/>
<polygon fill="#000000" stroke="#000000" points="151.1207,-213.3715 159.0416,-205.7879 152.9952,-208.7362 154.8698,-204.1009 154.8698,-204.1009 154.8698,-204.1009 152.9952,-208.7362 150.698,-202.4138 151.1207,-213.3715 151.1207,-213.3715"/>
</g>
<!-- Company -->
<g id="node3" class="node">
<title>Company</title>
<polygon fill="#add8e6" stroke="transparent" points="37.5,-270 37.5,-286 72.5,-286 72.5,-270 37.5,-270"/>
<polygon fill="none" stroke="#000000" points="37.5,-270 37.5,-286 72.5,-286 72.5,-270 37.5,-270"/>
<text text-anchor="start" x="45.2783" y="-276.5" font-family="Times,serif" font-size="5.00" fill="#000000">Company</text>
<polygon fill="none" stroke="#000000" points="37.5,-254 37.5,-270 72.5,-270 72.5,-254 37.5,-254"/>
<text text-anchor="start" x="42.0163" y="-260.5" font-family="Times,serif" font-size="5.00" fill="#000000">Company ID</text>
<polygon fill="none" stroke="#000000" points="37.5,-238 37.5,-254 72.5,-254 72.5,-238 37.5,-238"/>
<text text-anchor="start" x="42.5" y="-244.5" font-family="Times,serif" font-size="5.00" fill="#000000">company</text>
<polygon fill="none" stroke="#000000" points="37.5,-222 37.5,-238 72.5,-238 72.5,-222 37.5,-222"/>
<text text-anchor="start" x="42.5" y="-228.5" font-family="Times,serif" font-size="5.00" fill="#000000">...</text>
</g>
<!-- Company&#45;&gt;Event -->
<g id="edge2" class="edge">
<title>Company-&gt;Event</title>
<path fill="none" stroke="#000000" d="M81.7626,-234.2458C90.5848,-227.6542 100.3263,-220.1617 109,-213 118.4189,-205.223 128.3366,-196.5128 137.4447,-188.287"/>
<polygon fill="#000000" stroke="#000000" points="137.4812,-188.2538 147.9056,-184.8502 141.1788,-184.8881 144.8764,-181.5224 144.8764,-181.5224 144.8764,-181.5224 141.1788,-184.8881 141.8473,-178.1946 137.4812,-188.2538 137.4812,-188.2538"/>
</g>
<!-- User -->
<g id="node4" class="node">
<title>User</title>
<polygon fill="#add8e6" stroke="transparent" points="25.5,-188 25.5,-204 84.5,-204 84.5,-188 25.5,-188"/>
<polygon fill="none" stroke="#000000" points="25.5,-188 25.5,-204 84.5,-204 84.5,-188 25.5,-188"/>
<text text-anchor="start" x="43.7565" y="-194.5" font-family="Times,serif" font-size="5.00" fill="#000000">Workspace</text>
<polygon fill="#add8e6" stroke="transparent" points="25.5,-172 25.5,-188 55.5,-188 55.5,-172 25.5,-172"/>
<polygon fill="none" stroke="#000000" points="25.5,-172 25.5,-188 55.5,-188 55.5,-172 25.5,-172"/>
<text text-anchor="start" x="32.4433" y="-178.5" font-family="Times,serif" font-size="5.00" fill="#000000">Column</text>
<polygon fill="#add8e6" stroke="transparent" points="55.5,-172 55.5,-188 84.5,-188 84.5,-172 55.5,-172"/>
<polygon fill="none" stroke="#000000" points="55.5,-172 55.5,-188 84.5,-188 84.5,-172 55.5,-172"/>
<text text-anchor="start" x="60.1388" y="-178.5" font-family="Times,serif" font-size="5.00" fill="#000000">Comment</text>
<polygon fill="none" stroke="#000000" points="25.5,-156 25.5,-172 55.5,-172 55.5,-156 25.5,-156"/>
<text text-anchor="start" x="30.5" y="-162.5" font-family="Times,serif" font-size="5.00" fill="#000000">User ID</text>
<polygon fill="none" stroke="#000000" points="55.5,-156 55.5,-172 84.5,-172 84.5,-156 55.5,-156"/>
<polygon fill="none" stroke="#000000" points="25.5,-140 25.5,-156 55.5,-156 55.5,-140 25.5,-140"/>
<text text-anchor="start" x="30.2965" y="-146.5" font-family="Times,serif" font-size="5.00" fill="#000000">user name</text>
<polygon fill="none" stroke="#000000" points="55.5,-140 55.5,-156 84.5,-156 84.5,-140 55.5,-140"/>
<polygon fill="none" stroke="#000000" points="25.5,-124 25.5,-140 55.5,-140 55.5,-124 25.5,-124"/>
<text text-anchor="start" x="30.157" y="-130.5" font-family="Times,serif" font-size="5.00" fill="#000000">user email</text>
<polygon fill="none" stroke="#000000" points="55.5,-124 55.5,-140 84.5,-140 84.5,-124 55.5,-124"/>
<polygon fill="none" stroke="#000000" points="25.5,-108 25.5,-124 55.5,-124 55.5,-108 25.5,-108"/>
<text text-anchor="start" x="30.5" y="-114.5" font-family="Times,serif" font-size="5.00" fill="#000000">user type</text>
<polygon fill="none" stroke="#000000" points="55.5,-108 55.5,-124 84.5,-124 84.5,-108 55.5,-108"/>
<text text-anchor="start" x="60.5" y="-114.5" font-family="Times,serif" font-size="5.00" fill="#000000">...</text>
</g>
<!-- User&#45;&gt;Event -->
<g id="edge3" class="edge">
<title>User-&gt;Event</title>
<path fill="none" stroke="#000000" d="M84.1502,-156C99.4309,-156 118.2255,-156 134.5039,-156"/>
<polygon fill="#000000" stroke="#000000" points="134.7755,-156.0001 144.7756,-160.5 139.7755,-156 144.7755,-156 144.7755,-156 144.7755,-156 139.7755,-156 144.7755,-151.5 134.7755,-156.0001 134.7755,-156.0001"/>
</g>
<!-- Date -->
<g id="node5" class="node">
<title>Date</title>
<polygon fill="#add8e6" stroke="transparent" points="45.5,-72 45.5,-88 64.5,-88 64.5,-72 45.5,-72"/>
<polygon fill="none" stroke="#000000" points="45.5,-72 45.5,-88 64.5,-88 64.5,-72 45.5,-72"/>
<text text-anchor="start" x="50.281" y="-78.5" font-family="Times,serif" font-size="5.00" fill="#000000">Date</text>
<polygon fill="none" stroke="#000000" points="45.5,-56 45.5,-72 64.5,-72 64.5,-56 45.5,-56"/>
<text text-anchor="start" x="50.5" y="-62.5" font-family="Times,serif" font-size="5.00" fill="#000000">..</text>
</g>
<!-- Date&#45;&gt;Event -->
<g id="edge4" class="edge">
<title>Date-&gt;Event</title>
<path fill="none" stroke="#000000" d="M81.6575,-83.638C90.6581,-87.9637 100.5332,-93.2361 109,-99 118.7131,-105.6124 128.4818,-113.6292 137.3309,-121.536"/>
<polygon fill="#000000" stroke="#000000" points="137.4712,-121.6644 141.807,-131.7367 141.1586,-125.0412 144.8461,-128.4179 144.8461,-128.4179 144.8461,-128.4179 141.1586,-125.0412 147.8852,-125.0992 137.4712,-121.6644 137.4712,-121.6644"/>
</g>
<!-- Board -->
<g id="node6" class="node">
<title>Board</title>
<polygon fill="#add8e6" stroke="transparent" points="43.5,-18 43.5,-34 65.5,-34 65.5,-18 43.5,-18"/>
<polygon fill="none" stroke="#000000" points="43.5,-18 43.5,-34 65.5,-34 65.5,-18 43.5,-18"/>
<text text-anchor="start" x="48.3907" y="-24.5" font-family="Times,serif" font-size="5.00" fill="#000000">Board</text>
<polygon fill="none" stroke="#000000" points="43.5,-2 43.5,-18 65.5,-18 65.5,-2 43.5,-2"/>
<text text-anchor="start" x="48.5" y="-8.5" font-family="Times,serif" font-size="5.00" fill="#000000">..</text>
</g>
<!-- Board&#45;&gt;Event -->
<g id="edge5" class="edge">
<title>Board-&gt;Event</title>
<path fill="none" stroke="#000000" d="M81.7206,-27.651C91.1316,-31.9258 101.2497,-37.6739 109,-45 124.8449,-59.9777 137.8169,-79.8405 147.7834,-98.6203"/>
<polygon fill="#000000" stroke="#000000" points="147.8857,-98.8206 148.4265,-109.7732 150.1599,-103.2735 152.4341,-107.7264 152.4341,-107.7264 152.4341,-107.7264 150.1599,-103.2735 156.4417,-105.6796 147.8857,-98.8206 147.8857,-98.8206"/>
</g>
<!-- Categorized_User -->
<g id="node9" class="node">
<title>Categorized_User</title>
<polygon fill="#add8e6" stroke="transparent" points="333.3701,-180 333.3701,-196 377.3701,-196 377.3701,-180 333.3701,-180"/>
<polygon fill="none" stroke="#000000" points="333.3701,-180 333.3701,-196 377.3701,-196 377.3701,-180 333.3701,-180"/>
<text text-anchor="start" x="337.948" y="-186.5" font-family="Times,serif" font-size="5.00" fill="#000000">Categorized User</text>
<polygon fill="none" stroke="#000000" points="333.3701,-164 333.3701,-180 377.3701,-180 377.3701,-164 333.3701,-164"/>
<text text-anchor="start" x="338.3701" y="-170.5" font-family="Times,serif" font-size="5.00" fill="#000000">Event Date</text>
<polygon fill="none" stroke="#000000" points="333.3701,-148 333.3701,-164 377.3701,-164 377.3701,-148 333.3701,-148"/>
<text text-anchor="start" x="338.3701" y="-154.5" font-family="Times,serif" font-size="5.00" fill="#000000">User ID</text>
<polygon fill="none" stroke="#000000" points="333.3701,-132 333.3701,-148 377.3701,-148 377.3701,-132 333.3701,-132"/>
<text text-anchor="start" x="338.3701" y="-138.5" font-family="Times,serif" font-size="5.00" fill="#000000">Plan type</text>
<polygon fill="none" stroke="#000000" points="333.3701,-116 333.3701,-132 377.3701,-132 377.3701,-116 333.3701,-116"/>
<text text-anchor="start" x="338.3701" y="-122.5" font-family="Times,serif" font-size="5.00" fill="#000000">User category</text>
</g>
<!-- Transformation&#45;&gt;Categorized_User -->
<g id="edge7" class="edge">
<title>Transformation-&gt;Categorized_User</title>
<path fill="none" stroke="#000000" d="M271.3017,-156C284.3224,-156 302.2664,-156 318.2334,-156"/>
<polygon fill="#000000" stroke="#000000" points="318.369,-159.5001 328.3689,-156 318.3689,-152.5001 318.369,-159.5001"/>
</g>
<!-- Aggregation -->
<g id="node8" class="node">
<title>Aggregation</title>
<ellipse fill="#add8e6" stroke="#000000" cx="457.7401" cy="-194" rx="18" ry="18"/>
<text text-anchor="middle" x="457.7401" y="-192.5" font-family="Times,serif" font-size="5.00" fill="#000000">Aggregation</text>
</g>
<!-- Agg_Event -->
<g id="node10" class="node">
<title>Agg_Event</title>
<polygon fill="#add8e6" stroke="transparent" points="511.7401,-218 511.7401,-234 571.7401,-234 571.7401,-218 511.7401,-218"/>
<polygon fill="none" stroke="#000000" points="511.7401,-218 511.7401,-234 571.7401,-234 571.7401,-218 511.7401,-218"/>
<text text-anchor="start" x="516.6134" y="-224.5" font-family="Times,serif" font-size="5.00" fill="#000000">Engaged User Aggregate</text>
<polygon fill="none" stroke="#000000" points="511.7401,-202 511.7401,-218 571.7401,-218 571.7401,-202 511.7401,-202"/>
<text text-anchor="start" x="516.7401" y="-208.5" font-family="Times,serif" font-size="5.00" fill="#000000">Event Date</text>
<polygon fill="none" stroke="#000000" points="511.7401,-186 511.7401,-202 571.7401,-202 571.7401,-186 511.7401,-186"/>
<text text-anchor="start" x="516.7401" y="-192.5" font-family="Times,serif" font-size="5.00" fill="#000000">User Catgory</text>
<polygon fill="none" stroke="#000000" points="511.7401,-170 511.7401,-186 571.7401,-186 571.7401,-170 511.7401,-170"/>
<text text-anchor="start" x="516.7401" y="-176.5" font-family="Times,serif" font-size="5.00" fill="#000000">Plan type</text>
<polygon fill="none" stroke="#000000" points="511.7401,-154 511.7401,-170 571.7401,-170 571.7401,-154 511.7401,-154"/>
<text text-anchor="start" x="516.7401" y="-160.5" font-family="Times,serif" font-size="5.00" fill="#000000"># User</text>
</g>
<!-- Aggregation&#45;&gt;Agg_Event -->
<g id="edge9" class="edge">
<title>Aggregation-&gt;Agg_Event</title>
<path fill="none" stroke="#000000" d="M475.9668,-194C483.5394,-194 492.6493,-194 501.6427,-194"/>
<polygon fill="#000000" stroke="#000000" points="501.6589,-197.5001 511.6588,-194 501.6588,-190.5001 501.6589,-197.5001"/>
</g>
<!-- Categorized_User&#45;&gt;Aggregation -->
<g id="edge8" class="edge">
<title>Categorized_User-&gt;Aggregation</title>
<path fill="none" stroke="#000000" d="M382.5346,-166.0835C397.5503,-171.6574 416.1329,-178.5553 431.0694,-184.0998"/>
<polygon fill="#000000" stroke="#000000" points="430.1459,-187.4903 440.7388,-187.6891 432.5819,-180.9278 430.1459,-187.4903"/>
</g>
<!-- Agg_comment -->
<g id="node11" class="node">
<title>Agg_comment</title>
<polygon fill="#ffff00" stroke="#000000" points="397.6105,-250 307.1296,-250 307.1296,-214 403.6105,-214 403.6105,-244 397.6105,-250"/>
<polyline fill="none" stroke="#000000" points="397.6105,-250 397.6105,-244 "/>
<polyline fill="none" stroke="#000000" points="403.6105,-244 397.6105,-244 "/>
<text text-anchor="middle" x="355.3701" y="-240.1" font-family="Times,serif" font-size="9.00" fill="#000000">Determines user category</text>
<text text-anchor="middle" x="355.3701" y="-229.3" font-family="Times,serif" font-size="9.00" fill="#000000"> based on x events within </text>
<text text-anchor="middle" x="355.3701" y="-218.5" font-family="Times,serif" font-size="9.00" fill="#000000">n days in a sliding window</text>
</g>
<!-- Agg_comment&#45;&gt;Aggregation -->
<g id="edge10" class="edge">
<title>Agg_comment-&gt;Aggregation</title>
<path fill="none" stroke="#000000" stroke-dasharray="5,2" d="M403.857,-214.0015C417.0867,-209.0906 430.5575,-204.0902 440.7209,-200.3176"/>
</g>
</g>
</svg>