<?xml version="1.0" encoding="UTF-8" standalone="no"?><!DOCTYPE svg PUBLIC "-//W3C//DTD SVG 1.1//EN" "http://www.w3.org/Graphics/SVG/1.1/DTD/svg11.dtd"><!-- Generated by graphviz version 2.40.1 (20161225.0304)
 --><!-- Title: G Pages: 1 --><svg xmlns="http://www.w3.org/2000/svg" xmlns:xlink="http://www.w3.org/1999/xlink" width="661pt" height="498pt" viewBox="0.00 0.00 660.73 498.00">
<g id="graph0" class="graph" transform="scale(1 1) rotate(0) translate(4 494)">
<title>G</title>
<polygon fill="#ffffff" stroke="transparent" points="-4,4 -4,-494 656.7292,-494 656.7292,4 -4,4"/>
<!-- Event -->
<g id="node1" class="node">
<title>Event</title>
<polygon fill="#add8e6" stroke="transparent" points="115.3701,-223 115.3701,-245 190.3701,-245 190.3701,-223 115.3701,-223"/>
<polygon fill="none" stroke="#000000" points="115.3701,-223 115.3701,-245 190.3701,-245 190.3701,-223 115.3701,-223"/>
<text text-anchor="start" x="141.2066" y="-231" font-family="Times,serif" font-size="10.00" fill="#000000">Event</text>
<polygon fill="none" stroke="#000000" points="115.3701,-201 115.3701,-223 190.3701,-223 190.3701,-201 115.3701,-201"/>
<text text-anchor="start" x="120.2411" y="-209" font-family="Times,serif" font-size="10.00" fill="#000000">Event Date/time</text>
<polygon fill="none" stroke="#000000" points="115.3701,-179 115.3701,-201 190.3701,-201 190.3701,-179 115.3701,-179"/>
<text text-anchor="start" x="120.37" y="-187" font-family="Times,serif" font-size="10.00" fill="#000000">User ID</text>
<polygon fill="none" stroke="#000000" points="115.3701,-157 115.3701,-179 190.3701,-179 190.3701,-157 115.3701,-157"/>
<text text-anchor="start" x="120.3701" y="-165" font-family="Times,serif" font-size="10.00" fill="#000000">Workspace ID</text>
<polygon fill="none" stroke="#000000" points="115.3701,-135 115.3701,-157 190.3701,-157 190.3701,-135 115.3701,-135"/>
<text text-anchor="start" x="120.3701" y="-143" font-family="Times,serif" font-size="10.00" fill="#000000">Board ID</text>
<polygon fill="none" stroke="#000000" points="115.3701,-113 115.3701,-135 190.3701,-135 190.3701,-113 115.3701,-113"/>
<text text-anchor="start" x="120.3701" y="-121" font-family="Times,serif" font-size="10.00" fill="#000000">Event...</text>
</g>
<!-- Transformation -->
<g id="node7" class="node">
<title>Transformation</title>
<ellipse fill="#add8e6" stroke="#000000" cx="269.7266" cy="-230" rx="32.9731" ry="32.9731"/>
<text text-anchor="middle" x="269.7266" y="-227" font-family="Times,serif" font-size="10.00" fill="#000000">Transformation</text>
</g>
<!-- Event&#45;&gt;Transformation -->
<g id="edge6" class="edge">
<title>Event-&gt;Transformation</title>
<path fill="none" stroke="#000000" d="M190.1484,-195.4174C202.8565,-200.94 217.069,-207.1164 229.9277,-212.7045"/>
<polygon fill="#000000" stroke="#000000" points="228.8832,-216.0667 239.4496,-216.8424 231.6732,-209.6467 228.8832,-216.0667"/>
</g>
<!-- Workspace -->
<g id="node2" class="node">
<title>Workspace</title>
<polygon fill="#add8e6" stroke="transparent" points="0,-468 0,-490 68,-490 68,-468 0,-468"/>
<polygon fill="none" stroke="#000000" points="0,-468 0,-490 68,-490 68,-468 0,-468"/>
<text text-anchor="start" x="11.513" y="-476" font-family="Times,serif" font-size="10.00" fill="#000000">Workspace</text>
<polygon fill="#add8e6" stroke="transparent" points="0,-446 0,-468 68,-468 68,-446 0,-446"/>
<polygon fill="none" stroke="#000000" points="0,-446 0,-468 68,-468 68,-446 0,-446"/>
<text text-anchor="start" x="17.8865" y="-454" font-family="Times,serif" font-size="10.00" fill="#000000">Column</text>
<polygon fill="none" stroke="#000000" points="0,-424 0,-446 68,-446 68,-424 0,-424"/>
<text text-anchor="start" x="4.989" y="-432" font-family="Times,serif" font-size="10.00" fill="#000000">Workspace ID</text>
<polygon fill="none" stroke="#000000" points="0,-402 0,-424 68,-424 68,-402 0,-402"/>
<text text-anchor="start" x="5" y="-410" font-family="Times,serif" font-size="10.00" fill="#000000">company</text>
<polygon fill="none" stroke="#000000" points="0,-380 0,-402 68,-402 68,-380 0,-380"/>
<text text-anchor="start" x="5" y="-388" font-family="Times,serif" font-size="10.00" fill="#000000">plan type</text>
<polygon fill="none" stroke="#000000" points="0,-358 0,-380 68,-380 68,-358 0,-358"/>
<text text-anchor="start" x="5" y="-366" font-family="Times,serif" font-size="10.00" fill="#000000">...</text>
</g>
<!-- Workspace&#45;&gt;Event -->
<g id="edge1" class="edge">
<title>Workspace-&gt;Event</title>
<path fill="none" stroke="#000000" d="M64.264,-357.8462C65.542,-354.8633 66.7928,-351.9043 68,-349 85.3301,-307.3061 83.6513,-294.3069 104,-254 105.7948,-250.4449 107.7167,-246.8477 109.7223,-243.2526"/>
<polygon fill="#000000" stroke="#000000" points="109.8619,-243.0102 118.7537,-236.5925 112.3583,-238.6779 114.8548,-234.3457 114.8548,-234.3457 114.8548,-234.3457 112.3583,-238.6779 110.9558,-232.099 109.8619,-243.0102 109.8619,-243.0102"/>
</g>
<!-- Company -->
<g id="node3" class="node">
<title>Company</title>
<polygon fill="#add8e6" stroke="transparent" points="4,-318 4,-340 65,-340 65,-318 4,-318"/>
<polygon fill="none" stroke="#000000" points="4,-318 4,-340 65,-340 65,-318 4,-318"/>
<text text-anchor="start" x="15.0565" y="-326" font-family="Times,serif" font-size="10.00" fill="#000000">Company</text>
<polygon fill="none" stroke="#000000" points="4,-296 4,-318 65,-318 65,-296 4,-296"/>
<text text-anchor="start" x="8.5325" y="-304" font-family="Times,serif" font-size="10.00" fill="#000000">Company ID</text>
<polygon fill="none" stroke="#000000" points="4,-274 4,-296 65,-296 65,-274 4,-274"/>
<text text-anchor="start" x="9" y="-282" font-family="Times,serif" font-size="10.00" fill="#000000">company</text>
<polygon fill="none" stroke="#000000" points="4,-252 4,-274 65,-274 65,-252 4,-252"/>
<text text-anchor="start" x="9" y="-260" font-family="Times,serif" font-size="10.00" fill="#000000">...</text>
</g>
<!-- Company&#45;&gt;Event -->
<g id="edge2" class="edge">
<title>Company-&gt;Event</title>
<path fill="none" stroke="#000000" d="M64.7913,-265.5651C77.7412,-252.765 93.0679,-237.6158 107.2507,-223.5971"/>
<polygon fill="#000000" stroke="#000000" points="107.4323,-223.4176 117.7079,-219.5882 110.9884,-219.9027 114.5445,-216.3878 114.5445,-216.3878 114.5445,-216.3878 110.9884,-219.9027 111.3811,-213.1873 107.4323,-223.4176 107.4323,-223.4176"/>
</g>
<!-- User -->
<g id="node4" class="node">
<title>User</title>
<polygon fill="#add8e6" stroke="transparent" points="7,-212 7,-234 61,-234 61,-212 7,-212"/>
<polygon fill="none" stroke="#000000" points="7,-212 7,-234 61,-234 61,-212 7,-212"/>
<text text-anchor="start" x="11.513" y="-220" font-family="Times,serif" font-size="10.00" fill="#000000">Workspace</text>
<polygon fill="none" stroke="#000000" points="7,-190 7,-212 61,-212 61,-190 7,-190"/>
<text text-anchor="start" x="12" y="-198" font-family="Times,serif" font-size="10.00" fill="#000000">User ID</text>
<polygon fill="none" stroke="#000000" points="7,-168 7,-190 61,-190 61,-168 7,-168"/>
<text text-anchor="start" x="12" y="-176" font-family="Times,serif" font-size="10.00" fill="#000000">user name</text>
<polygon fill="none" stroke="#000000" points="7,-146 7,-168 61,-168 61,-146 7,-146"/>
<text text-anchor="start" x="12" y="-154" font-family="Times,serif" font-size="10.00" fill="#000000">user email</text>
<polygon fill="none" stroke="#000000" points="7,-124 7,-146 61,-146 61,-124 7,-124"/>
<text text-anchor="start" x="12" y="-132" font-family="Times,serif" font-size="10.00" fill="#000000">user type</text>
</g>
<!-- User&#45;&gt;Event -->
<g id="edge3" class="edge">
<title>User-&gt;Event</title>
<path fill="none" stroke="#000000" d="M61.1565,-179C74.0227,-179 89.7786,-179 104.5526,-179"/>
<polygon fill="#000000" stroke="#000000" points="104.5763,-179.0001 114.5763,-183.5 109.5763,-179 114.5763,-179 114.5763,-179 114.5763,-179 109.5763,-179 114.5763,-174.5 104.5763,-179.0001 104.5763,-179.0001"/>
</g>
<!-- Date -->
<g id="node5" class="node">
<title>Date</title>
<polygon fill="#add8e6" stroke="transparent" points="20,-84 20,-106 48,-106 48,-84 20,-84"/>
<polygon fill="none" stroke="#000000" points="20,-84 20,-106 48,-106 48,-84 20,-84"/>
<text text-anchor="start" x="24.562" y="-92" font-family="Times,serif" font-size="10.00" fill="#000000">Date</text>
<polygon fill="none" stroke="#000000" points="20,-62 20,-84 48,-84 48,-62 20,-62"/>
<text text-anchor="start" x="25" y="-70" font-family="Times,serif" font-size="10.00" fill="#000000">..</text>
</g>
<!-- Date&#45;&gt;Event -->
<g id="edge4" class="edge">
<title>Date-&gt;Event</title>
<path fill="none" stroke="#000000" d="M61.1565,-105.7949C74.6412,-116.6173 91.3003,-129.9874 106.6763,-142.3276"/>
<polygon fill="#000000" stroke="#000000" points="106.7774,-142.4088 111.7597,-152.1775 110.6768,-145.5384 114.5763,-148.668 114.5763,-148.668 114.5763,-148.668 110.6768,-145.5384 117.3929,-145.1584 106.7774,-142.4088 106.7774,-142.4088"/>
</g>
<!-- Board -->
<g id="node6" class="node">
<title>Board</title>
<polygon fill="#add8e6" stroke="transparent" points="17,-22 17,-44 51,-44 51,-22 17,-22"/>
<polygon fill="none" stroke="#000000" points="17,-22 17,-44 51,-44 51,-22 17,-22"/>
<text text-anchor="start" x="21.7815" y="-30" font-family="Times,serif" font-size="10.00" fill="#000000">Board</text>
<polygon fill="none" stroke="#000000" points="17,0 17,-22 51,-22 51,0 17,0"/>
<text text-anchor="start" x="22" y="-8" font-family="Times,serif" font-size="10.00" fill="#000000">..</text>
</g>
<!-- Board&#45;&gt;Event -->
<g id="edge5" class="edge">
<title>Board-&gt;Event</title>
<path fill="none" stroke="#000000" d="M59.5538,-44.0344C62.5093,-46.9461 65.3942,-49.9731 68,-53 82.5967,-69.9556 96.8,-89.5394 109.2625,-108.1379"/>
<polygon fill="#000000" stroke="#000000" points="109.3437,-108.2607 111.1081,-119.0837 112.1024,-112.4308 114.8612,-116.6008 114.8612,-116.6008 114.8612,-116.6008 112.1024,-112.4308 118.6142,-114.118 109.3437,-108.2607 109.3437,-108.2607"/>
</g>
<!-- Categorized_User -->
<g id="node9" class="node">
<title>Categorized_User</title>
<polygon fill="#add8e6" stroke="transparent" points="339.2132,-263 339.2132,-285 418.2132,-285 418.2132,-263 339.2132,-263"/>
<polygon fill="none" stroke="#000000" points="339.2132,-263 339.2132,-285 418.2132,-285 418.2132,-263 339.2132,-263"/>
<text text-anchor="start" x="343.8692" y="-271" font-family="Times,serif" font-size="10.00" fill="#000000">Categorized User</text>
<polygon fill="none" stroke="#000000" points="339.2132,-241 339.2132,-263 418.2132,-263 418.2132,-241 339.2132,-241"/>
<text text-anchor="start" x="344.2132" y="-249" font-family="Times,serif" font-size="10.00" fill="#000000">Event Date</text>
<polygon fill="none" stroke="#000000" points="339.2132,-219 339.2132,-241 418.2132,-241 418.2132,-219 339.2132,-219"/>
<text text-anchor="start" x="344.2132" y="-227" font-family="Times,serif" font-size="10.00" fill="#000000">User ID</text>
<polygon fill="none" stroke="#000000" points="339.2132,-197 339.2132,-219 418.2132,-219 418.2132,-197 339.2132,-197"/>
<text text-anchor="start" x="344.2132" y="-205" font-family="Times,serif" font-size="10.00" fill="#000000">Plan type</text>
<polygon fill="none" stroke="#000000" points="339.2132,-175 339.2132,-197 418.2132,-197 418.2132,-175 339.2132,-175"/>
<text text-anchor="start" x="344.2132" y="-183" font-family="Times,serif" font-size="10.00" fill="#000000">User category</text>
</g>
<!-- Transformation&#45;&gt;Categorized_User -->
<g id="edge7" class="edge">
<title>Transformation-&gt;Categorized_User</title>
<path fill="none" stroke="#000000" d="M302.8656,-230C310.9273,-230 319.7258,-230 328.3739,-230"/>
<polygon fill="#000000" stroke="#000000" points="328.404,-233.5001 338.404,-230 328.4039,-226.5001 328.404,-233.5001"/>
</g>
<!-- Aggregation -->
<g id="node8" class="node">
<title>Aggregation</title>
<ellipse fill="#add8e6" stroke="#000000" cx="480.2212" cy="-230" rx="26.516" ry="26.516"/>
<text text-anchor="middle" x="480.2212" y="-227" font-family="Times,serif" font-size="10.00" fill="#000000">Aggregation</text>
</g>
<!-- Agg_Event -->
<g id="node10" class="node">
<title>Agg_Event</title>
<polygon fill="#add8e6" stroke="transparent" points="542.7292,-263 542.7292,-285 652.7292,-285 652.7292,-263 542.7292,-263"/>
<polygon fill="none" stroke="#000000" points="542.7292,-263 542.7292,-285 652.7292,-285 652.7292,-263 542.7292,-263"/>
<text text-anchor="start" x="547.4757" y="-271" font-family="Times,serif" font-size="10.00" fill="#000000">Engaged User Aggregate</text>
<polygon fill="none" stroke="#000000" points="542.7292,-241 542.7292,-263 652.7292,-263 652.7292,-241 542.7292,-241"/>
<text text-anchor="start" x="547.7292" y="-249" font-family="Times,serif" font-size="10.00" fill="#000000">Event Date</text>
<polygon fill="none" stroke="#000000" points="542.7292,-219 542.7292,-241 652.7292,-241 652.7292,-219 542.7292,-219"/>
<text text-anchor="start" x="547.7292" y="-227" font-family="Times,serif" font-size="10.00" fill="#000000">User Catgory</text>
<polygon fill="none" stroke="#000000" points="542.7292,-197 542.7292,-219 652.7292,-219 652.7292,-197 542.7292,-197"/>
<text text-anchor="start" x="547.7292" y="-205" font-family="Times,serif" font-size="10.00" fill="#000000">Plan type</text>
<polygon fill="none" stroke="#000000" points="542.7292,-175 542.7292,-197 652.7292,-197 652.7292,-175 542.7292,-175"/>
<text text-anchor="start" x="547.7292" y="-183" font-family="Times,serif" font-size="10.00" fill="#000000"># User</text>
</g>
<!-- Aggregation&#45;&gt;Agg_Event -->
<g id="edge9" class="edge">
<title>Aggregation-&gt;Agg_Event</title>
<path fill="none" stroke="#000000" d="M506.8856,-230C514.5606,-230 523.2894,-230 532.2294,-230"/>
<polygon fill="#000000" stroke="#000000" points="532.3678,-233.5001 542.3677,-230 532.3677,-226.5001 532.3678,-233.5001"/>
</g>
<!-- Categorized_User&#45;&gt;Aggregation -->
<g id="edge8" class="edge">
<title>Categorized_User-&gt;Aggregation</title>
<path fill="none" stroke="#000000" d="M417.9442,-230C426.3617,-230 435.2104,-230 443.5098,-230"/>
<polygon fill="#000000" stroke="#000000" points="443.6549,-233.5001 453.6549,-230 443.6549,-226.5001 443.6549,-233.5001"/>
</g>
<!-- Agg_comment -->
<g id="node11" class="node">
<title>Agg_comment</title>
<polygon fill="#ffff00" stroke="#000000" points="194.6105,-299 104.1296,-299 104.1296,-263 200.6105,-263 200.6105,-293 194.6105,-299"/>
<polyline fill="none" stroke="#000000" points="194.6105,-299 194.6105,-293 "/>
<polyline fill="none" stroke="#000000" points="200.6105,-293 194.6105,-293 "/>
<text text-anchor="middle" x="152.3701" y="-289.1" font-family="Times,serif" font-size="9.00" fill="#000000">Determines user category</text>
<text text-anchor="middle" x="152.3701" y="-278.3" font-family="Times,serif" font-size="9.00" fill="#000000"> based on x events within </text>
<text text-anchor="middle" x="152.3701" y="-267.5" font-family="Times,serif" font-size="9.00" fill="#000000">n days in a sliding window</text>
</g>
<!-- Agg_comment&#45;&gt;Transformation -->
<g id="edge10" class="edge">
<title>Agg_comment-&gt;Transformation</title>
<path fill="none" stroke="#000000" stroke-dasharray="5,2" d="M194.076,-262.8757C208.9654,-256.4052 225.45,-249.2414 239.2204,-243.2572"/>
</g>
</g>
</svg>