<?xml version="1.0" encoding="UTF-8" standalone="no"?><!DOCTYPE svg PUBLIC "-//W3C//DTD SVG 1.1//EN" "http://www.w3.org/Graphics/SVG/1.1/DTD/svg11.dtd"><!-- Generated by graphviz version 2.40.1 (20161225.0304)
 --><!-- Title: G Pages: 1 --><svg xmlns="http://www.w3.org/2000/svg" xmlns:xlink="http://www.w3.org/1999/xlink" width="461pt" height="498pt" viewBox="0.00 0.00 461.19 498.00">
<g id="graph0" class="graph" transform="scale(1 1) rotate(0) translate(4 494)">
<title>G</title>
<polygon fill="#ffffff" stroke="transparent" points="-4,4 -4,-494 457.1858,-494 457.1858,4 -4,4"/>
<!-- Event -->
<g id="node1" class="node">
<title>Event</title>
<polygon fill="#add8e6" stroke="transparent" points="132.5929,-223 132.5929,-245 207.5929,-245 207.5929,-223 132.5929,-223"/>
<polygon fill="none" stroke="#000000" points="132.5929,-223 132.5929,-245 207.5929,-245 207.5929,-223 132.5929,-223"/>
<text text-anchor="start" x="158.4294" y="-231" font-family="Times,serif" font-size="10.00" fill="#000000">Event</text>
<polygon fill="none" stroke="#000000" points="132.5929,-201 132.5929,-223 207.5929,-223 207.5929,-201 132.5929,-201"/>
<text text-anchor="start" x="137.4639" y="-209" font-family="Times,serif" font-size="10.00" fill="#000000">Event Date/time</text>
<polygon fill="none" stroke="#000000" points="132.5929,-179 132.5929,-201 207.5929,-201 207.5929,-179 132.5929,-179"/>
<text text-anchor="start" x="137.5929" y="-187" font-family="Times,serif" font-size="10.00" fill="#000000">User ID</text>
<polygon fill="none" stroke="#000000" points="132.5929,-157 132.5929,-179 207.5929,-179 207.5929,-157 132.5929,-157"/>
<text text-anchor="start" x="137.5929" y="-165" font-family="Times,serif" font-size="10.00" fill="#000000">Workspace ID</text>
<polygon fill="none" stroke="#000000" points="132.5929,-135 132.5929,-157 207.5929,-157 207.5929,-135 132.5929,-135"/>
<text text-anchor="start" x="137.5929" y="-143" font-family="Times,serif" font-size="10.00" fill="#000000">Board ID</text>
<polygon fill="none" stroke="#000000" points="132.5929,-113 132.5929,-135 207.5929,-135 207.5929,-113 132.5929,-113"/>
<text text-anchor="start" x="137.5929" y="-121" font-family="Times,serif" font-size="10.00" fill="#000000">Event...</text>
</g>
<!-- ETL -->
<g id="node7" class="node">
<title>ETL</title>
<ellipse fill="#add8e6" stroke="#000000" cx="289.1858" cy="-285" rx="18" ry="18"/>
<text text-anchor="middle" x="289.1858" y="-282" font-family="Times,serif" font-size="10.00" fill="#000000">ETL</text>
</g>
<!-- Event&#45;&gt;ETL -->
<g id="edge6" class="edge">
<title>Event-&gt;ETL</title>
<path fill="none" stroke="#000000" d="M207.1047,-212.2482C227.1199,-229.9885 251.0223,-251.1742 267.8568,-266.0953"/>
<polygon fill="#000000" stroke="#000000" points="265.7001,-268.8606 275.5052,-272.8744 270.3432,-263.6221 265.7001,-268.8606"/>
</g>
<!-- Workspace -->
<g id="node2" class="node">
<title>Workspace</title>
<polygon fill="#add8e6" stroke="transparent" points="0,-468 0,-490 68,-490 68,-468 0,-468"/>
<polygon fill="none" stroke="#000000" points="0,-468 0,-490 68,-490 68,-468 0,-468"/>
<text text-anchor="start" x="11.513" y="-476" font-family="Times,serif" font-size="10.00" fill="#000000">Workspace</text>
<polygon fill="#add8e6" stroke="transparent" points="0,-446 0,-468 68,-468 68,-446 0,-446"/>
<polygon fill="none" stroke="#000000" points="0,-446 0,-468 68,-468 68,-446 0,-446"/>
<text text-anchor="start" x="17.8865" y="-454" font-family="Times,serif" font-size="10.00" fill="#000000">Column</text>
<polygon fill="none" stroke="#000000" points="0,-424 0,-446 68,-446 68,-424 0,-424"/>
<text text-anchor="start" x="4.989" y="-432" font-family="Times,serif" font-size="10.00" fill="#000000">Workspace ID</text>
<polygon fill="none" stroke="#000000" points="0,-402 0,-424 68,-424 68,-402 0,-402"/>
<text text-anchor="start" x="5" y="-410" font-family="Times,serif" font-size="10.00" fill="#000000">company</text>
<polygon fill="none" stroke="#000000" points="0,-380 0,-402 68,-402 68,-380 0,-380"/>
<text text-anchor="start" x="5" y="-388" font-family="Times,serif" font-size="10.00" fill="#000000">plan type</text>
<polygon fill="none" stroke="#000000" points="0,-358 0,-380 68,-380 68,-358 0,-358"/>
<text text-anchor="start" x="5" y="-366" font-family="Times,serif" font-size="10.00" fill="#000000">...</text>
</g>
<!-- Workspace&#45;&gt;Event -->
<g id="edge1" class="edge">
<title>Workspace-&gt;Event</title>
<path fill="none" stroke="#000000" d="M64.264,-357.8462C65.542,-354.8633 66.7928,-351.9043 68,-349 85.3301,-307.3061 80.7699,-292.7179 104,-254 110.1185,-243.8023 117.6813,-233.6728 125.4715,-224.3102"/>
<polygon fill="#000000" stroke="#000000" points="125.5356,-224.2354 135.4592,-219.5693 128.7887,-220.4384 132.0419,-216.6415 132.0419,-216.6415 132.0419,-216.6415 128.7887,-220.4384 128.6247,-213.7136 125.5356,-224.2354 125.5356,-224.2354"/>
</g>
<!-- Company -->
<g id="node3" class="node">
<title>Company</title>
<polygon fill="#add8e6" stroke="transparent" points="4,-318 4,-340 65,-340 65,-318 4,-318"/>
<polygon fill="none" stroke="#000000" points="4,-318 4,-340 65,-340 65,-318 4,-318"/>
<text text-anchor="start" x="15.0565" y="-326" font-family="Times,serif" font-size="10.00" fill="#000000">Company</text>
<polygon fill="none" stroke="#000000" points="4,-296 4,-318 65,-318 65,-296 4,-296"/>
<text text-anchor="start" x="8.5325" y="-304" font-family="Times,serif" font-size="10.00" fill="#000000">Company ID</text>
<polygon fill="none" stroke="#000000" points="4,-274 4,-296 65,-296 65,-274 4,-274"/>
<text text-anchor="start" x="9" y="-282" font-family="Times,serif" font-size="10.00" fill="#000000">company</text>
<polygon fill="none" stroke="#000000" points="4,-252 4,-274 65,-274 65,-252 4,-252"/>
<text text-anchor="start" x="9" y="-260" font-family="Times,serif" font-size="10.00" fill="#000000">...</text>
</g>
<!-- Company&#45;&gt;Event -->
<g id="edge2" class="edge">
<title>Company-&gt;Event</title>
<path fill="none" stroke="#000000" d="M64.7681,-269.4509C82.2889,-254.3326 104.5691,-235.1076 124.0792,-218.2727"/>
<polygon fill="#000000" stroke="#000000" points="124.1136,-218.2431 134.6245,-215.1171 127.8991,-214.9766 131.6847,-211.7101 131.6847,-211.7101 131.6847,-211.7101 127.8991,-214.9766 128.7449,-208.3031 124.1136,-218.2431 124.1136,-218.2431"/>
</g>
<!-- User -->
<g id="node4" class="node">
<title>User</title>
<polygon fill="#add8e6" stroke="transparent" points="9,-212 9,-234 60,-234 60,-212 9,-212"/>
<polygon fill="none" stroke="#000000" points="9,-212 9,-234 60,-234 60,-212 9,-212"/>
<text text-anchor="start" x="25.062" y="-220" font-family="Times,serif" font-size="10.00" fill="#000000">User</text>
<polygon fill="none" stroke="#000000" points="9,-190 9,-212 60,-212 60,-190 9,-190"/>
<text text-anchor="start" x="14" y="-198" font-family="Times,serif" font-size="10.00" fill="#000000">User ID</text>
<polygon fill="none" stroke="#000000" points="9,-168 9,-190 60,-190 60,-168 9,-168"/>
<text text-anchor="start" x="14" y="-176" font-family="Times,serif" font-size="10.00" fill="#000000">user name</text>
<polygon fill="none" stroke="#000000" points="9,-146 9,-168 60,-168 60,-146 9,-146"/>
<text text-anchor="start" x="13.814" y="-154" font-family="Times,serif" font-size="10.00" fill="#000000">user email</text>
<polygon fill="none" stroke="#000000" points="9,-124 9,-146 60,-146 60,-124 9,-124"/>
<text text-anchor="start" x="14" y="-132" font-family="Times,serif" font-size="10.00" fill="#000000">user type</text>
</g>
<!-- User&#45;&gt;Event -->
<g id="edge3" class="edge">
<title>User-&gt;Event</title>
<path fill="none" stroke="#000000" d="M61.1134,-179C78.5014,-179 101.555,-179 121.9374,-179"/>
<polygon fill="#000000" stroke="#000000" points="121.9993,-179.0001 131.9993,-183.5 126.9993,-179 131.9993,-179 131.9993,-179 131.9993,-179 126.9993,-179 131.9992,-174.5 121.9993,-179.0001 121.9993,-179.0001"/>
</g>
<!-- Date -->
<g id="node5" class="node">
<title>Date</title>
<polygon fill="#add8e6" stroke="transparent" points="20,-84 20,-106 48,-106 48,-84 20,-84"/>
<polygon fill="none" stroke="#000000" points="20,-84 20,-106 48,-106 48,-84 20,-84"/>
<text text-anchor="start" x="24.562" y="-92" font-family="Times,serif" font-size="10.00" fill="#000000">Date</text>
<polygon fill="none" stroke="#000000" points="20,-62 20,-84 48,-84 48,-62 20,-62"/>
<text text-anchor="start" x="25" y="-70" font-family="Times,serif" font-size="10.00" fill="#000000">..</text>
</g>
<!-- Date&#45;&gt;Event -->
<g id="edge4" class="edge">
<title>Date-&gt;Event</title>
<path fill="none" stroke="#000000" d="M61.1134,-102.9963C78.9778,-115.5126 102.8225,-132.2189 123.6065,-146.7807"/>
<polygon fill="#000000" stroke="#000000" points="123.8093,-146.9228 129.4171,-156.3464 127.9043,-149.7918 131.9993,-152.6609 131.9993,-152.6609 131.9993,-152.6609 127.9043,-149.7918 134.5814,-148.9754 123.8093,-146.9228 123.8093,-146.9228"/>
</g>
<!-- Board -->
<g id="node6" class="node">
<title>Board</title>
<polygon fill="#add8e6" stroke="transparent" points="17,-22 17,-44 51,-44 51,-22 17,-22"/>
<polygon fill="none" stroke="#000000" points="17,-22 17,-44 51,-44 51,-22 17,-22"/>
<text text-anchor="start" x="21.7815" y="-30" font-family="Times,serif" font-size="10.00" fill="#000000">Board</text>
<polygon fill="none" stroke="#000000" points="17,0 17,-22 51,-22 51,0 17,0"/>
<text text-anchor="start" x="22" y="-8" font-family="Times,serif" font-size="10.00" fill="#000000">..</text>
</g>
<!-- Board&#45;&gt;Event -->
<g id="edge5" class="edge">
<title>Board-&gt;Event</title>
<path fill="none" stroke="#000000" d="M59.2985,-44.2641C62.2979,-47.1364 65.2628,-50.0914 68,-53 87.9811,-74.2325 108.4541,-98.9519 125.738,-120.8439"/>
<polygon fill="#000000" stroke="#000000" points="125.783,-120.9013 128.4139,-131.547 128.8689,-124.8355 131.9547,-128.7697 131.9547,-128.7697 131.9547,-128.7697 128.8689,-124.8355 135.4955,-125.9925 125.783,-120.9013 125.783,-120.9013"/>
</g>
<!-- Agg_Event -->
<g id="node8" class="node">
<title>Agg_Event</title>
<polygon fill="#add8e6" stroke="transparent" points="343.1858,-318 343.1858,-340 453.1858,-340 453.1858,-318 343.1858,-318"/>
<polygon fill="none" stroke="#000000" points="343.1858,-318 343.1858,-340 453.1858,-340 453.1858,-318 343.1858,-318"/>
<text text-anchor="start" x="347.9323" y="-326" font-family="Times,serif" font-size="10.00" fill="#000000">Engaged User Aggregate</text>
<polygon fill="none" stroke="#000000" points="343.1858,-296 343.1858,-318 453.1858,-318 453.1858,-296 343.1858,-296"/>
<text text-anchor="start" x="348.1858" y="-304" font-family="Times,serif" font-size="10.00" fill="#000000">Event Date</text>
<polygon fill="none" stroke="#000000" points="343.1858,-274 343.1858,-296 453.1858,-296 453.1858,-274 343.1858,-274"/>
<text text-anchor="start" x="348.1858" y="-282" font-family="Times,serif" font-size="10.00" fill="#000000">User Catgory</text>
<polygon fill="none" stroke="#000000" points="343.1858,-252 343.1858,-274 453.1858,-274 453.1858,-252 343.1858,-252"/>
<text text-anchor="start" x="348.1858" y="-260" font-family="Times,serif" font-size="10.00" fill="#000000">Plan type</text>
<polygon fill="none" stroke="#000000" points="343.1858,-230 343.1858,-252 453.1858,-252 453.1858,-230 343.1858,-230"/>
<text text-anchor="start" x="348.1858" y="-238" font-family="Times,serif" font-size="10.00" fill="#000000"># User</text>
</g>
<!-- ETL&#45;&gt;Agg_Event -->
<g id="edge7" class="edge">
<title>ETL-&gt;Agg_Event</title>
<path fill="none" stroke="#000000" d="M307.6762,-285C314.9022,-285 323.6568,-285 332.8396,-285"/>
<polygon fill="#000000" stroke="#000000" points="332.9199,-288.5001 342.9199,-285 332.9199,-281.5001 332.9199,-288.5001"/>
</g>
<!-- etl_comment -->
<g id="node9" class="node">
<title>etl_comment</title>
<polygon fill="#ffff00" stroke="#000000" points="229.2788,-361 103.907,-361 103.907,-325 235.2788,-325 235.2788,-355 229.2788,-361"/>
<polyline fill="none" stroke="#000000" points="229.2788,-361 229.2788,-355 "/>
<polyline fill="none" stroke="#000000" points="235.2788,-355 229.2788,-355 "/>
<text text-anchor="middle" x="169.5929" y="-345.7" font-family="Times,serif" font-size="9.00" fill="#000000">Materialize user level categorization</text>
<text text-anchor="middle" x="169.5929" y="-334.9" font-family="Times,serif" font-size="9.00" fill="#000000">may help in analytical queries</text>
</g>
<!-- etl_comment&#45;&gt;ETL -->
<g id="edge9" class="edge">
<title>etl_comment-&gt;ETL</title>
<path fill="none" stroke="#000000" stroke-dasharray="5,2" d="M215.8047,-324.8692C222.3719,-322.0352 228.9937,-319.0357 235.1858,-316 248.5805,-309.4333 263.2258,-300.9381 273.8811,-294.5017"/>
</g>
<!-- Agg_comment -->
<g id="node10" class="node">
<title>Agg_comment</title>
<polygon fill="#ffff00" stroke="#000000" points="216.5508,-306.7005 116.635,-306.7005 116.635,-263.2995 222.5508,-263.2995 222.5508,-300.7005 216.5508,-306.7005"/>
<polyline fill="none" stroke="#000000" points="216.5508,-306.7005 216.5508,-300.7005 "/>
<polyline fill="none" stroke="#000000" points="222.5508,-300.7005 216.5508,-300.7005 "/>
<text text-anchor="middle" x="169.5929" y="-298.5" font-family="Times,serif" font-size="9.00" fill="#000000">Determines user category</text>
<text text-anchor="middle" x="169.5929" y="-287.7" font-family="Times,serif" font-size="9.00" fill="#000000"> based on x events within </text>
<text text-anchor="middle" x="169.5929" y="-276.9" font-family="Times,serif" font-size="9.00" fill="#000000">n days in a sliding window</text>
<text text-anchor="middle" x="169.5929" y="-266.1" font-family="Times,serif" font-size="9.00" fill="#000000">Aggregates data to final table</text>
</g>
<!-- Agg_comment&#45;&gt;ETL -->
<g id="edge8" class="edge">
<title>Agg_comment-&gt;ETL</title>
<path fill="none" stroke="#000000" stroke-dasharray="5,2" d="M222.7445,-285C240.0871,-285 258.1846,-285 271.1044,-285"/>
</g>
</g>
</svg>