<?xml version="1.0" encoding="UTF-8" standalone="no"?><!DOCTYPE svg PUBLIC "-//W3C//DTD SVG 1.1//EN" "http://www.w3.org/Graphics/SVG/1.1/DTD/svg11.dtd"><!-- Generated by graphviz version 2.40.1 (20161225.0304)
 --><!-- Title: G Pages: 1 --><svg xmlns="http://www.w3.org/2000/svg" xmlns:xlink="http://www.w3.org/1999/xlink" width="771pt" height="1079pt" viewBox="0.00 0.00 770.69 1079.00">
<g id="graph0" class="graph" transform="scale(1 1) rotate(0) translate(4 1075)">
<title>G</title>
<polygon fill="#ffffff" stroke="transparent" points="-4,4 -4,-1075 766.6928,-1075 766.6928,4 -4,4"/>
<g id="clust1" class="cluster">
<title>cluster_0</title>
<polygon fill="#d3d3d3" stroke="#d3d3d3" points=".8519,-485 .8519,-1027 145.8519,-1027 145.8519,-485 .8519,-485"/>
<text text-anchor="middle" x="73.3519" y="-1014" font-family="Times,serif" font-size="10.00" fill="#000000">Workspace</text>
<text text-anchor="middle" x="73.3519" y="-1002" font-family="Times,serif" font-size="10.00" fill="#000000">s3://bucket/workspace/date=xxx</text>
</g>
<g id="clust2" class="cluster">
<title>cluster_1</title>
<polygon fill="#d3d3d3" stroke="#d3d3d3" points="3.8519,-393 3.8519,-477 142.8519,-477 142.8519,-393 3.8519,-393"/>
<text text-anchor="middle" x="73.3519" y="-464" font-family="Times,serif" font-size="10.00" fill="#000000">Workspace</text>
<text text-anchor="middle" x="73.3519" y="-452" font-family="Times,serif" font-size="10.00" fill="#000000">s3://bucket/company/date=xxx</text>
</g>
<g id="clust3" class="cluster">
<title>cluster_2</title>
<polygon fill="#d3d3d3" stroke="#d3d3d3" points="13.8519,-301 13.8519,-385 132.8519,-385 132.8519,-301 13.8519,-301"/>
<text text-anchor="middle" x="73.3519" y="-372" font-family="Times,serif" font-size="10.00" fill="#000000">Workspace</text>
<text text-anchor="middle" x="73.3519" y="-360" font-family="Times,serif" font-size="10.00" fill="#000000">s3://bucket/user/date=xxx</text>
</g>
<g id="clust4" class="cluster">
<title>cluster_3</title>
<polygon fill="#d3d3d3" stroke="#d3d3d3" points="10.8519,-147 10.8519,-239 135.8519,-239 135.8519,-147 10.8519,-147"/>
<text text-anchor="middle" x="73.3519" y="-226" font-family="Times,serif" font-size="10.00" fill="#000000">Workspace</text>
<text text-anchor="middle" x="73.3519" y="-214" font-family="Times,serif" font-size="10.00" fill="#000000">s3://bucket/board/date=xxx</text>
</g>
<g id="clust5" class="cluster">
<title>cluster_4</title>
<polygon fill="#d3d3d3" stroke="#d3d3d3" points="365.6768,-8 365.6768,-422 535.6768,-422 535.6768,-8 365.6768,-8"/>
<text text-anchor="middle" x="450.6768" y="-409" font-family="Times,serif" font-size="10.00" fill="#000000">Categorized_User</text>
<text text-anchor="middle" x="450.6768" y="-397" font-family="Times,serif" font-size="10.00" fill="#000000">s3://bucket/categorized_user/date=xxx</text>
</g>
<!-- Event -->
<g id="node1" class="node">
<title>Event</title>
<polygon fill="#add8e6" stroke="transparent" points="192.7037,-316 192.7037,-338 225.7037,-338 225.7037,-316 192.7037,-316"/>
<polygon fill="none" stroke="#000000" points="192.7037,-316 192.7037,-338 225.7037,-338 225.7037,-316 192.7037,-316"/>
<text text-anchor="start" x="197.5402" y="-324" font-family="Times,serif" font-size="10.00" fill="#000000">Event</text>
</g>
<!-- Transformation -->
<g id="node10" class="node">
<title>Transformation</title>
<ellipse fill="#add8e6" stroke="#000000" cx="304.6902" cy="-327" rx="32.9731" ry="32.9731"/>
<text text-anchor="middle" x="304.6902" y="-324" font-family="Times,serif" font-size="10.00" fill="#000000">Transformation</text>
</g>
<!-- Event&#45;&gt;Transformation -->
<g id="edge6" class="edge">
<title>Event-&gt;Transformation</title>
<path fill="none" stroke="#000000" d="M235.9528,-327C243.9202,-327 252.8321,-327 261.5301,-327"/>
<polygon fill="#000000" stroke="#000000" points="261.5732,-330.5001 271.5731,-327 261.5731,-323.5001 261.5732,-330.5001"/>
</g>
<!-- Workspace_2020_01_01 -->
<g id="node2" class="node">
<title>Workspace_2020_01_01</title>
<polygon fill="#ffffff" stroke="transparent" points="125.8519,-987 19.8519,-987 19.8519,-877 125.8519,-877 125.8519,-987"/>
<polygon fill="#add8e6" stroke="transparent" points="19.8519,-965 19.8519,-987 125.8519,-987 125.8519,-965 19.8519,-965"/>
<polygon fill="none" stroke="#ffffff" points="19.8519,-965 19.8519,-987 125.8519,-987 125.8519,-965 19.8519,-965"/>
<text text-anchor="start" x="29.4819" y="-973" font-family="Times,serif" font-size="10.00" fill="#000000">Partition=2020-01-01</text>
<polygon fill="#add8e6" stroke="transparent" points="19.8519,-943 19.8519,-965 92.8519,-965 92.8519,-943 19.8519,-943"/>
<polygon fill="none" stroke="#ffffff" points="19.8519,-943 19.8519,-965 92.8519,-965 92.8519,-943 19.8519,-943"/>
<text text-anchor="start" x="44.4139" y="-951" font-family="Times,serif" font-size="10.00" fill="#000000">Name</text>
<polygon fill="#add8e6" stroke="transparent" points="92.8519,-943 92.8519,-965 125.8519,-965 125.8519,-943 92.8519,-943"/>
<polygon fill="none" stroke="#ffffff" points="92.8519,-943 92.8519,-965 125.8519,-965 125.8519,-943 92.8519,-943"/>
<text text-anchor="start" x="97.4139" y="-951" font-family="Times,serif" font-size="10.00" fill="#000000">Value</text>
<polygon fill="none" stroke="#ffffff" points="19.8519,-921 19.8519,-943 92.8519,-943 92.8519,-921 19.8519,-921"/>
<text text-anchor="start" x="52.4624" y="-929" font-family="Times,serif" font-size="10.00" fill="#000000">id</text>
<polygon fill="none" stroke="#ffffff" points="92.8519,-921 92.8519,-943 125.8519,-943 125.8519,-921 92.8519,-921"/>
<text text-anchor="start" x="102.1324" y="-929" font-family="Times,serif" font-size="10.00" fill="#000000">W1</text>
<polygon fill="none" stroke="#ffffff" points="19.8519,-899 19.8519,-921 92.8519,-921 92.8519,-899 19.8519,-899"/>
<text text-anchor="start" x="24.6949" y="-907" font-family="Times,serif" font-size="10.00" fill="#000000">company_name</text>
<polygon fill="none" stroke="#ffffff" points="92.8519,-899 92.8519,-921 125.8519,-921 125.8519,-899 92.8519,-899"/>
<text text-anchor="start" x="99.9084" y="-907" font-family="Times,serif" font-size="10.00" fill="#000000">IBM</text>
<polygon fill="none" stroke="#ffffff" points="19.8519,-877 19.8519,-899 92.8519,-899 92.8519,-877 19.8519,-877"/>
<text text-anchor="start" x="36.6339" y="-885" font-family="Times,serif" font-size="10.00" fill="#000000">plan_type</text>
<polygon fill="none" stroke="#ffffff" points="92.8519,-877 92.8519,-899 125.8519,-899 125.8519,-877 92.8519,-877"/>
<text text-anchor="start" x="100.4689" y="-885" font-family="Times,serif" font-size="10.00" fill="#000000">Free</text>
</g>
<!-- Workspace_2020_01_01&#45;&gt;Event -->
<g id="edge1" class="edge">
<title>Workspace_2020_01_01-&gt;Event</title>
<path fill="none" stroke="#000000" d="M125.9862,-894.1179C133.7699,-886.327 140.8389,-877.5513 145.8519,-868 193.4481,-777.3144 205.4979,-452.714 208.0785,-355.0168"/>
<polygon fill="#000000" stroke="#000000" points="208.0786,-355.0073 212.8287,-345.1237 208.2044,-350.0089 208.3301,-345.0105 208.3301,-345.0105 208.3301,-345.0105 208.2044,-350.0089 203.8316,-344.8973 208.0786,-355.0073 208.0786,-355.0073"/>
</g>
<!-- Workspace_2020_01_02 -->
<g id="node3" class="node">
<title>Workspace_2020_01_02</title>
<polygon fill="#ffffff" stroke="transparent" points="125.8519,-859 19.8519,-859 19.8519,-749 125.8519,-749 125.8519,-859"/>
<polygon fill="#add8e6" stroke="transparent" points="19.8519,-837 19.8519,-859 125.8519,-859 125.8519,-837 19.8519,-837"/>
<polygon fill="none" stroke="#ffffff" points="19.8519,-837 19.8519,-859 125.8519,-859 125.8519,-837 19.8519,-837"/>
<text text-anchor="start" x="29.4819" y="-845" font-family="Times,serif" font-size="10.00" fill="#000000">Partition=2020-01-02</text>
<polygon fill="#add8e6" stroke="transparent" points="19.8519,-815 19.8519,-837 92.8519,-837 92.8519,-815 19.8519,-815"/>
<polygon fill="none" stroke="#ffffff" points="19.8519,-815 19.8519,-837 92.8519,-837 92.8519,-815 19.8519,-815"/>
<text text-anchor="start" x="44.4139" y="-823" font-family="Times,serif" font-size="10.00" fill="#000000">Name</text>
<polygon fill="#add8e6" stroke="transparent" points="92.8519,-815 92.8519,-837 125.8519,-837 125.8519,-815 92.8519,-815"/>
<polygon fill="none" stroke="#ffffff" points="92.8519,-815 92.8519,-837 125.8519,-837 125.8519,-815 92.8519,-815"/>
<text text-anchor="start" x="97.4139" y="-823" font-family="Times,serif" font-size="10.00" fill="#000000">Value</text>
<polygon fill="none" stroke="#ffffff" points="19.8519,-793 19.8519,-815 92.8519,-815 92.8519,-793 19.8519,-793"/>
<text text-anchor="start" x="52.4624" y="-801" font-family="Times,serif" font-size="10.00" fill="#000000">id</text>
<polygon fill="none" stroke="#ffffff" points="92.8519,-793 92.8519,-815 125.8519,-815 125.8519,-793 92.8519,-793"/>
<text text-anchor="start" x="102.1324" y="-801" font-family="Times,serif" font-size="10.00" fill="#000000">W1</text>
<polygon fill="none" stroke="#ffffff" points="19.8519,-771 19.8519,-793 92.8519,-793 92.8519,-771 19.8519,-771"/>
<text text-anchor="start" x="24.6949" y="-779" font-family="Times,serif" font-size="10.00" fill="#000000">company_name</text>
<polygon fill="none" stroke="#ffffff" points="92.8519,-771 92.8519,-793 125.8519,-793 125.8519,-771 92.8519,-771"/>
<text text-anchor="start" x="99.9084" y="-779" font-family="Times,serif" font-size="10.00" fill="#000000">IBM</text>
<polygon fill="none" stroke="#ffffff" points="19.8519,-749 19.8519,-771 92.8519,-771 92.8519,-749 19.8519,-749"/>
<text text-anchor="start" x="36.6339" y="-757" font-family="Times,serif" font-size="10.00" fill="#000000">plan_type</text>
<polygon fill="none" stroke="#ffffff" points="92.8519,-749 92.8519,-771 125.8519,-771 125.8519,-749 92.8519,-749"/>
<text text-anchor="start" x="100.4689" y="-757" font-family="Times,serif" font-size="10.00" fill="#000000">Free</text>
</g>
<!-- Workspace_2020_01_03 -->
<g id="node4" class="node">
<title>Workspace_2020_01_03</title>
<polygon fill="#ffffff" stroke="transparent" points="125.8519,-731 19.8519,-731 19.8519,-621 125.8519,-621 125.8519,-731"/>
<polygon fill="#add8e6" stroke="transparent" points="19.8519,-709 19.8519,-731 125.8519,-731 125.8519,-709 19.8519,-709"/>
<polygon fill="none" stroke="#ffffff" points="19.8519,-709 19.8519,-731 125.8519,-731 125.8519,-709 19.8519,-709"/>
<text text-anchor="start" x="29.4819" y="-717" font-family="Times,serif" font-size="10.00" fill="#000000">Partition=2020-01-03</text>
<polygon fill="#add8e6" stroke="transparent" points="19.8519,-687 19.8519,-709 92.8519,-709 92.8519,-687 19.8519,-687"/>
<polygon fill="none" stroke="#ffffff" points="19.8519,-687 19.8519,-709 92.8519,-709 92.8519,-687 19.8519,-687"/>
<text text-anchor="start" x="44.4139" y="-695" font-family="Times,serif" font-size="10.00" fill="#000000">Name</text>
<polygon fill="#add8e6" stroke="transparent" points="92.8519,-687 92.8519,-709 125.8519,-709 125.8519,-687 92.8519,-687"/>
<polygon fill="none" stroke="#ffffff" points="92.8519,-687 92.8519,-709 125.8519,-709 125.8519,-687 92.8519,-687"/>
<text text-anchor="start" x="97.4139" y="-695" font-family="Times,serif" font-size="10.00" fill="#000000">Value</text>
<polygon fill="none" stroke="#ffffff" points="19.8519,-665 19.8519,-687 92.8519,-687 92.8519,-665 19.8519,-665"/>
<text text-anchor="start" x="52.4624" y="-673" font-family="Times,serif" font-size="10.00" fill="#000000">id</text>
<polygon fill="none" stroke="#ffffff" points="92.8519,-665 92.8519,-687 125.8519,-687 125.8519,-665 92.8519,-665"/>
<text text-anchor="start" x="102.1324" y="-673" font-family="Times,serif" font-size="10.00" fill="#000000">W1</text>
<polygon fill="none" stroke="#ffffff" points="19.8519,-643 19.8519,-665 92.8519,-665 92.8519,-643 19.8519,-643"/>
<text text-anchor="start" x="24.6949" y="-651" font-family="Times,serif" font-size="10.00" fill="#000000">company_name</text>
<polygon fill="none" stroke="#ffffff" points="92.8519,-643 92.8519,-665 125.8519,-665 125.8519,-643 92.8519,-643"/>
<text text-anchor="start" x="99.9084" y="-651" font-family="Times,serif" font-size="10.00" fill="#000000">IBM</text>
<polygon fill="none" stroke="#ffffff" points="19.8519,-621 19.8519,-643 92.8519,-643 92.8519,-621 19.8519,-621"/>
<text text-anchor="start" x="36.6339" y="-629" font-family="Times,serif" font-size="10.00" fill="#000000">plan_type</text>
<polygon fill="none" stroke="#ffffff" points="92.8519,-621 92.8519,-643 125.8519,-643 125.8519,-621 92.8519,-621"/>
<text text-anchor="start" x="100.4689" y="-629" font-family="Times,serif" font-size="10.00" fill="#000000">Free</text>
</g>
<!-- Workspace_2020_03_12 -->
<g id="node5" class="node">
<title>Workspace_2020_03_12</title>
<polygon fill="#ffffff" stroke="transparent" points="125.8519,-603 19.8519,-603 19.8519,-493 125.8519,-493 125.8519,-603"/>
<polygon fill="#add8e6" stroke="transparent" points="19.8519,-581 19.8519,-603 125.8519,-603 125.8519,-581 19.8519,-581"/>
<polygon fill="none" stroke="#ffffff" points="19.8519,-581 19.8519,-603 125.8519,-603 125.8519,-581 19.8519,-581"/>
<text text-anchor="start" x="29.4819" y="-589" font-family="Times,serif" font-size="10.00" fill="#000000">Partition=2020-03-12</text>
<polygon fill="#add8e6" stroke="transparent" points="19.8519,-559 19.8519,-581 92.8519,-581 92.8519,-559 19.8519,-559"/>
<polygon fill="none" stroke="#ffffff" points="19.8519,-559 19.8519,-581 92.8519,-581 92.8519,-559 19.8519,-559"/>
<text text-anchor="start" x="44.4139" y="-567" font-family="Times,serif" font-size="10.00" fill="#000000">Name</text>
<polygon fill="#add8e6" stroke="transparent" points="92.8519,-559 92.8519,-581 125.8519,-581 125.8519,-559 92.8519,-559"/>
<polygon fill="none" stroke="#ffffff" points="92.8519,-559 92.8519,-581 125.8519,-581 125.8519,-559 92.8519,-559"/>
<text text-anchor="start" x="97.4139" y="-567" font-family="Times,serif" font-size="10.00" fill="#000000">Value</text>
<polygon fill="none" stroke="#ffffff" points="19.8519,-537 19.8519,-559 92.8519,-559 92.8519,-537 19.8519,-537"/>
<text text-anchor="start" x="52.4624" y="-545" font-family="Times,serif" font-size="10.00" fill="#000000">id</text>
<polygon fill="none" stroke="#ffffff" points="92.8519,-537 92.8519,-559 125.8519,-559 125.8519,-537 92.8519,-537"/>
<text text-anchor="start" x="102.1324" y="-545" font-family="Times,serif" font-size="10.00" fill="#000000">W1</text>
<polygon fill="none" stroke="#ffffff" points="19.8519,-515 19.8519,-537 92.8519,-537 92.8519,-515 19.8519,-515"/>
<text text-anchor="start" x="24.6949" y="-523" font-family="Times,serif" font-size="10.00" fill="#000000">company_name</text>
<polygon fill="none" stroke="#ffffff" points="92.8519,-515 92.8519,-537 125.8519,-537 125.8519,-515 92.8519,-515"/>
<text text-anchor="start" x="99.9084" y="-523" font-family="Times,serif" font-size="10.00" fill="#000000">IBM</text>
<polygon fill="none" stroke="#ffffff" points="19.8519,-493 19.8519,-515 92.8519,-515 92.8519,-493 19.8519,-493"/>
<text text-anchor="start" x="36.6339" y="-501" font-family="Times,serif" font-size="10.00" fill="#000000">plan_type</text>
<polygon fill="none" stroke="#ffffff" points="92.8519,-493 92.8519,-515 125.8519,-515 125.8519,-493 92.8519,-493"/>
<text text-anchor="start" x="100.4634" y="-501" font-family="Times,serif" font-size="10.00" fill="#000000">Paid</text>
</g>
<!-- Company -->
<g id="node6" class="node">
<title>Company</title>
<polygon fill="#ffffff" stroke="transparent" points="99.8519,-437 45.8519,-437 45.8519,-401 99.8519,-401 99.8519,-437"/>
<polygon fill="#add8e6" stroke="transparent" points="48.8519,-408 48.8519,-430 96.8519,-430 96.8519,-408 48.8519,-408"/>
<polygon fill="none" stroke="#ffffff" points="48.8519,-408 48.8519,-430 96.8519,-430 96.8519,-408 48.8519,-408"/>
<text text-anchor="start" x="53.4084" y="-416" font-family="Times,serif" font-size="10.00" fill="#000000">Company</text>
</g>
<!-- Company&#45;&gt;Event -->
<g id="edge2" class="edge">
<title>Company-&gt;Event</title>
<path fill="none" stroke="#000000" d="M100.1061,-410.6488C114.3926,-405.5846 131.7938,-398.2959 145.8519,-389 160.9541,-379.0136 175.5013,-365.0425 186.7901,-352.8902"/>
<polygon fill="#000000" stroke="#000000" points="187.0084,-352.6485 197.0506,-348.2435 190.3597,-348.9379 193.711,-345.2273 193.711,-345.2273 193.711,-345.2273 190.3597,-348.9379 190.3715,-342.2111 187.0084,-352.6485 187.0084,-352.6485"/>
</g>
<!-- User -->
<g id="node7" class="node">
<title>User</title>
<polygon fill="#ffffff" stroke="transparent" points="99.8519,-345 45.8519,-345 45.8519,-309 99.8519,-309 99.8519,-345"/>
<polygon fill="#add8e6" stroke="transparent" points="58.8519,-316 58.8519,-338 86.8519,-338 86.8519,-316 58.8519,-316"/>
<polygon fill="none" stroke="#ffffff" points="58.8519,-316 58.8519,-338 86.8519,-338 86.8519,-316 58.8519,-316"/>
<text text-anchor="start" x="63.4139" y="-324" font-family="Times,serif" font-size="10.00" fill="#000000">User</text>
</g>
<!-- User&#45;&gt;Event -->
<g id="edge3" class="edge">
<title>User-&gt;Event</title>
<path fill="none" stroke="#000000" d="M100.017,-327C120.4717,-327 148.7517,-327 171.3372,-327"/>
<polygon fill="#000000" stroke="#000000" points="171.5856,-327.0001 181.5857,-331.5 176.5856,-327 181.5856,-327 181.5856,-327 181.5856,-327 176.5856,-327 181.5856,-322.5 171.5856,-327.0001 171.5856,-327.0001"/>
</g>
<!-- Date -->
<g id="node8" class="node">
<title>Date</title>
<polygon fill="#add8e6" stroke="transparent" points="58.8519,-269 58.8519,-291 86.8519,-291 86.8519,-269 58.8519,-269"/>
<polygon fill="none" stroke="#000000" points="58.8519,-269 58.8519,-291 86.8519,-291 86.8519,-269 58.8519,-269"/>
<text text-anchor="start" x="63.4139" y="-277" font-family="Times,serif" font-size="10.00" fill="#000000">Date</text>
<polygon fill="none" stroke="#000000" points="58.8519,-247 58.8519,-269 86.8519,-269 86.8519,-247 58.8519,-247"/>
<text text-anchor="start" x="63.8519" y="-255" font-family="Times,serif" font-size="10.00" fill="#000000">..</text>
</g>
<!-- Date&#45;&gt;Event -->
<g id="edge4" class="edge">
<title>Date-&gt;Event</title>
<path fill="none" stroke="#000000" d="M100.098,-278.8667C113.9106,-284.0158 130.886,-290.5701 145.8519,-297 154.5812,-300.7505 163.8733,-305.025 172.5603,-309.1486"/>
<polygon fill="#000000" stroke="#000000" points="172.6782,-309.2052 179.7467,-317.5889 177.186,-311.3685 181.6937,-313.5319 181.6937,-313.5319 181.6937,-313.5319 177.186,-311.3685 183.6408,-309.4749 172.6782,-309.2052 172.6782,-309.2052"/>
</g>
<!-- Board -->
<g id="node9" class="node">
<title>Board</title>
<polygon fill="#ffffff" stroke="transparent" points="99.8519,-199 45.8519,-199 45.8519,-155 99.8519,-155 99.8519,-199"/>
<polygon fill="#add8e6" stroke="transparent" points="55.8519,-177 55.8519,-199 89.8519,-199 89.8519,-177 55.8519,-177"/>
<polygon fill="none" stroke="#ffffff" points="55.8519,-177 55.8519,-199 89.8519,-199 89.8519,-177 55.8519,-177"/>
<text text-anchor="start" x="60.6334" y="-185" font-family="Times,serif" font-size="10.00" fill="#000000">Board</text>
<polygon fill="none" stroke="#ffffff" points="55.8519,-155 55.8519,-177 89.8519,-177 89.8519,-155 55.8519,-155"/>
<text text-anchor="start" x="60.8519" y="-163" font-family="Times,serif" font-size="10.00" fill="#000000">..</text>
</g>
<!-- Board&#45;&gt;Event -->
<g id="edge5" class="edge">
<title>Board-&gt;Event</title>
<path fill="none" stroke="#000000" d="M99.9902,-196.9195C114.4093,-208.1605 131.9703,-222.9428 145.8519,-238 163.7019,-257.3619 180.7255,-281.9861 192.5424,-300.4229"/>
<polygon fill="#000000" stroke="#000000" points="192.5711,-300.4684 194.0999,-311.3272 195.2385,-304.6974 197.906,-308.9265 197.906,-308.9265 197.906,-308.9265 195.2385,-304.6974 201.7121,-306.5258 192.5711,-300.4684 192.5711,-300.4684"/>
</g>
<!-- Categorized_User_2020_01_01 -->
<g id="node12" class="node">
<title>Categorized_User_2020_01_01</title>
<polygon fill="#ffffff" stroke="transparent" points="501.6768,-382 399.6768,-382 399.6768,-272 501.6768,-272 501.6768,-382"/>
<polygon fill="#add8e6" stroke="transparent" points="399.6768,-360 399.6768,-382 501.6768,-382 501.6768,-360 399.6768,-360"/>
<polygon fill="none" stroke="#ffffff" points="399.6768,-360 399.6768,-382 501.6768,-382 501.6768,-360 399.6768,-360"/>
<text text-anchor="start" x="404.8068" y="-368" font-family="Times,serif" font-size="10.00" fill="#000000">Partition = 2020-01-01</text>
<polygon fill="#add8e6" stroke="transparent" points="399.6768,-338 399.6768,-360 464.6768,-360 464.6768,-338 399.6768,-338"/>
<polygon fill="none" stroke="#ffffff" points="399.6768,-338 399.6768,-360 464.6768,-360 464.6768,-338 399.6768,-338"/>
<text text-anchor="start" x="420.2388" y="-346" font-family="Times,serif" font-size="10.00" fill="#000000">Name</text>
<polygon fill="#add8e6" stroke="transparent" points="464.6768,-338 464.6768,-360 501.6768,-360 501.6768,-338 464.6768,-338"/>
<polygon fill="none" stroke="#ffffff" points="464.6768,-338 464.6768,-360 501.6768,-360 501.6768,-338 464.6768,-338"/>
<text text-anchor="start" x="471.2388" y="-346" font-family="Times,serif" font-size="10.00" fill="#000000">Value</text>
<polygon fill="none" stroke="#ffffff" points="399.6768,-316 399.6768,-338 464.6768,-338 464.6768,-316 399.6768,-316"/>
<text text-anchor="start" x="404.6768" y="-324" font-family="Times,serif" font-size="10.00" fill="#000000">User ID</text>
<polygon fill="none" stroke="#ffffff" points="464.6768,-316 464.6768,-338 501.6768,-338 501.6768,-316 464.6768,-316"/>
<text text-anchor="start" x="469.6768" y="-324" font-family="Times,serif" font-size="10.00" fill="#000000">U1</text>
<polygon fill="none" stroke="#ffffff" points="399.6768,-294 399.6768,-316 464.6768,-316 464.6768,-294 399.6768,-294"/>
<text text-anchor="start" x="404.6768" y="-302" font-family="Times,serif" font-size="10.00" fill="#000000">Plan type</text>
<polygon fill="none" stroke="#ffffff" points="464.6768,-294 464.6768,-316 501.6768,-316 501.6768,-294 464.6768,-294"/>
<text text-anchor="start" x="469.6768" y="-302" font-family="Times,serif" font-size="10.00" fill="#000000">..</text>
<polygon fill="none" stroke="#ffffff" points="399.6768,-272 399.6768,-294 464.6768,-294 464.6768,-272 399.6768,-272"/>
<text text-anchor="start" x="404.2763" y="-280" font-family="Times,serif" font-size="10.00" fill="#000000">User category</text>
<polygon fill="none" stroke="#ffffff" points="464.6768,-272 464.6768,-294 501.6768,-294 501.6768,-272 464.6768,-272"/>
<text text-anchor="start" x="469.5693" y="-280" font-family="Times,serif" font-size="10.00" fill="#000000">Casual</text>
</g>
<!-- Transformation&#45;&gt;Categorized_User_2020_01_01 -->
<g id="edge7" class="edge">
<title>Transformation-&gt;Categorized_User_2020_01_01</title>
<path fill="none" stroke="#000000" d="M337.8168,-327C353.077,-327 371.6907,-327 389.3661,-327"/>
<polygon fill="#000000" stroke="#000000" points="389.6322,-330.5001 399.6322,-327 389.6321,-323.5001 389.6322,-330.5001"/>
</g>
<!-- Aggregation -->
<g id="node11" class="node">
<title>Aggregation</title>
<ellipse fill="#add8e6" stroke="#000000" cx="590.1848" cy="-327" rx="26.516" ry="26.516"/>
<text text-anchor="middle" x="590.1848" y="-324" font-family="Times,serif" font-size="10.00" fill="#000000">Aggregation</text>
</g>
<!-- Agg_Event -->
<g id="node15" class="node">
<title>Agg_Event</title>
<polygon fill="#add8e6" stroke="transparent" points="652.6928,-360 652.6928,-382 762.6928,-382 762.6928,-360 652.6928,-360"/>
<polygon fill="none" stroke="#000000" points="652.6928,-360 652.6928,-382 762.6928,-382 762.6928,-360 652.6928,-360"/>
<text text-anchor="start" x="657.4393" y="-368" font-family="Times,serif" font-size="10.00" fill="#000000">Engaged User Aggregate</text>
<polygon fill="none" stroke="#000000" points="652.6928,-338 652.6928,-360 762.6928,-360 762.6928,-338 652.6928,-338"/>
<text text-anchor="start" x="657.6928" y="-346" font-family="Times,serif" font-size="10.00" fill="#000000">Date</text>
<polygon fill="none" stroke="#000000" points="652.6928,-316 652.6928,-338 762.6928,-338 762.6928,-316 652.6928,-316"/>
<text text-anchor="start" x="657.6928" y="-324" font-family="Times,serif" font-size="10.00" fill="#000000">User Catgory</text>
<polygon fill="none" stroke="#000000" points="652.6928,-294 652.6928,-316 762.6928,-316 762.6928,-294 652.6928,-294"/>
<text text-anchor="start" x="657.6928" y="-302" font-family="Times,serif" font-size="10.00" fill="#000000">Plan type</text>
<polygon fill="none" stroke="#000000" points="652.6928,-272 652.6928,-294 762.6928,-294 762.6928,-272 652.6928,-272"/>
<text text-anchor="start" x="657.6928" y="-280" font-family="Times,serif" font-size="10.00" fill="#000000"># User</text>
</g>
<!-- Aggregation&#45;&gt;Agg_Event -->
<g id="edge9" class="edge">
<title>Aggregation-&gt;Agg_Event</title>
<path fill="none" stroke="#000000" d="M616.8492,-327C624.5242,-327 633.253,-327 642.193,-327"/>
<polygon fill="#000000" stroke="#000000" points="642.3314,-330.5001 652.3313,-327 642.3313,-323.5001 642.3314,-330.5001"/>
</g>
<!-- Categorized_User_2020_01_01&#45;&gt;Aggregation -->
<g id="edge8" class="edge">
<title>Categorized_User_2020_01_01-&gt;Aggregation</title>
<path fill="none" stroke="#000000" d="M501.8322,-327C518.7655,-327 537.2763,-327 552.9599,-327"/>
<polygon fill="#000000" stroke="#000000" points="553.3121,-330.5001 563.312,-327 553.312,-323.5001 553.3121,-330.5001"/>
</g>
<!-- Categorized_User_2020_01_02 -->
<g id="node13" class="node">
<title>Categorized_User_2020_01_02</title>
<polygon fill="#ffffff" stroke="transparent" points="501.6768,-254 399.6768,-254 399.6768,-144 501.6768,-144 501.6768,-254"/>
<polygon fill="#add8e6" stroke="transparent" points="399.6768,-232 399.6768,-254 501.6768,-254 501.6768,-232 399.6768,-232"/>
<polygon fill="none" stroke="#ffffff" points="399.6768,-232 399.6768,-254 501.6768,-254 501.6768,-232 399.6768,-232"/>
<text text-anchor="start" x="404.8068" y="-240" font-family="Times,serif" font-size="10.00" fill="#000000">Partition = 2020-01-02</text>
<polygon fill="#add8e6" stroke="transparent" points="399.6768,-210 399.6768,-232 464.6768,-232 464.6768,-210 399.6768,-210"/>
<polygon fill="none" stroke="#ffffff" points="399.6768,-210 399.6768,-232 464.6768,-232 464.6768,-210 399.6768,-210"/>
<text text-anchor="start" x="420.2388" y="-218" font-family="Times,serif" font-size="10.00" fill="#000000">Name</text>
<polygon fill="#add8e6" stroke="transparent" points="464.6768,-210 464.6768,-232 501.6768,-232 501.6768,-210 464.6768,-210"/>
<polygon fill="none" stroke="#ffffff" points="464.6768,-210 464.6768,-232 501.6768,-232 501.6768,-210 464.6768,-210"/>
<text text-anchor="start" x="471.2388" y="-218" font-family="Times,serif" font-size="10.00" fill="#000000">Value</text>
<polygon fill="none" stroke="#ffffff" points="399.6768,-188 399.6768,-210 464.6768,-210 464.6768,-188 399.6768,-188"/>
<text text-anchor="start" x="404.6768" y="-196" font-family="Times,serif" font-size="10.00" fill="#000000">User ID</text>
<polygon fill="none" stroke="#ffffff" points="464.6768,-188 464.6768,-210 501.6768,-210 501.6768,-188 464.6768,-188"/>
<text text-anchor="start" x="469.6768" y="-196" font-family="Times,serif" font-size="10.00" fill="#000000">U1</text>
<polygon fill="none" stroke="#ffffff" points="399.6768,-166 399.6768,-188 464.6768,-188 464.6768,-166 399.6768,-166"/>
<text text-anchor="start" x="404.6768" y="-174" font-family="Times,serif" font-size="10.00" fill="#000000">Plan type</text>
<polygon fill="none" stroke="#ffffff" points="464.6768,-166 464.6768,-188 501.6768,-188 501.6768,-166 464.6768,-166"/>
<text text-anchor="start" x="469.6768" y="-174" font-family="Times,serif" font-size="10.00" fill="#000000">..</text>
<polygon fill="none" stroke="#ffffff" points="399.6768,-144 399.6768,-166 464.6768,-166 464.6768,-144 399.6768,-144"/>
<text text-anchor="start" x="404.2763" y="-152" font-family="Times,serif" font-size="10.00" fill="#000000">User category</text>
<polygon fill="none" stroke="#ffffff" points="464.6768,-144 464.6768,-166 501.6768,-166 501.6768,-144 464.6768,-144"/>
<text text-anchor="start" x="469.5693" y="-152" font-family="Times,serif" font-size="10.00" fill="#000000">Casual</text>
</g>
<!-- Categorized_User_2020_03_15 -->
<g id="node14" class="node">
<title>Categorized_User_2020_03_15</title>
<polygon fill="#ffffff" stroke="transparent" points="501.6768,-126 399.6768,-126 399.6768,-16 501.6768,-16 501.6768,-126"/>
<polygon fill="#add8e6" stroke="transparent" points="399.6768,-104 399.6768,-126 501.6768,-126 501.6768,-104 399.6768,-104"/>
<polygon fill="none" stroke="#ffffff" points="399.6768,-104 399.6768,-126 501.6768,-126 501.6768,-104 399.6768,-104"/>
<text text-anchor="start" x="404.8068" y="-112" font-family="Times,serif" font-size="10.00" fill="#000000">Partition = 2020-03-15</text>
<polygon fill="#add8e6" stroke="transparent" points="399.6768,-82 399.6768,-104 464.6768,-104 464.6768,-82 399.6768,-82"/>
<polygon fill="none" stroke="#ffffff" points="399.6768,-82 399.6768,-104 464.6768,-104 464.6768,-82 399.6768,-82"/>
<text text-anchor="start" x="420.2388" y="-90" font-family="Times,serif" font-size="10.00" fill="#000000">Name</text>
<polygon fill="#add8e6" stroke="transparent" points="464.6768,-82 464.6768,-104 501.6768,-104 501.6768,-82 464.6768,-82"/>
<polygon fill="none" stroke="#ffffff" points="464.6768,-82 464.6768,-104 501.6768,-104 501.6768,-82 464.6768,-82"/>
<text text-anchor="start" x="471.2388" y="-90" font-family="Times,serif" font-size="10.00" fill="#000000">Value</text>
<polygon fill="none" stroke="#ffffff" points="399.6768,-60 399.6768,-82 464.6768,-82 464.6768,-60 399.6768,-60"/>
<text text-anchor="start" x="404.6768" y="-68" font-family="Times,serif" font-size="10.00" fill="#000000">User ID</text>
<polygon fill="none" stroke="#ffffff" points="464.6768,-60 464.6768,-82 501.6768,-82 501.6768,-60 464.6768,-60"/>
<text text-anchor="start" x="469.6768" y="-68" font-family="Times,serif" font-size="10.00" fill="#000000">U1</text>
<polygon fill="none" stroke="#ffffff" points="399.6768,-38 399.6768,-60 464.6768,-60 464.6768,-38 399.6768,-38"/>
<text text-anchor="start" x="404.6768" y="-46" font-family="Times,serif" font-size="10.00" fill="#000000">Plan type</text>
<polygon fill="none" stroke="#ffffff" points="464.6768,-38 464.6768,-60 501.6768,-60 501.6768,-38 464.6768,-38"/>
<text text-anchor="start" x="469.6768" y="-46" font-family="Times,serif" font-size="10.00" fill="#000000">..</text>
<polygon fill="none" stroke="#ffffff" points="399.6768,-16 399.6768,-38 464.6768,-38 464.6768,-16 399.6768,-16"/>
<text text-anchor="start" x="404.2763" y="-24" font-family="Times,serif" font-size="10.00" fill="#000000">User category</text>
<polygon fill="none" stroke="#ffffff" points="464.6768,-16 464.6768,-38 501.6768,-38 501.6768,-16 464.6768,-16"/>
<text text-anchor="start" x="469.5693" y="-24" font-family="Times,serif" font-size="10.00" fill="#000000">Casual</text>
</g>
<!-- Workspace_comment -->
<g id="node16" class="node">
<title>Workspace_comment</title>
<polygon fill="#ffff00" stroke="#000000" points="139.5559,-1071 .1478,-1071 .1478,-1035 145.5559,-1035 145.5559,-1065 139.5559,-1071"/>
<polyline fill="none" stroke="#000000" points="139.5559,-1071 139.5559,-1065 "/>
<polyline fill="none" stroke="#000000" points="145.5559,-1065 139.5559,-1065 "/>
<text text-anchor="middle" x="72.8519" y="-1061.1" font-family="Times,serif" font-size="9.00" fill="#000000">Daily partition of workspace data</text>
<text text-anchor="middle" x="72.8519" y="-1050.3" font-family="Times,serif" font-size="9.00" fill="#000000">Partition is stored as ext table</text>
<text text-anchor="middle" x="72.8519" y="-1039.5" font-family="Times,serif" font-size="9.00" fill="#000000">Stores complete dataset in each partition</text>
</g>
</g>
</svg>