<?xml version="1.0" encoding="UTF-8" standalone="no"?><!DOCTYPE svg PUBLIC "-//W3C//DTD SVG 1.1//EN" "http://www.w3.org/Graphics/SVG/1.1/DTD/svg11.dtd"><!-- Generated by graphviz version 2.40.1 (20161225.0304)
 --><!-- Title: G Pages: 1 --><svg xmlns="http://www.w3.org/2000/svg" xmlns:xlink="http://www.w3.org/1999/xlink" width="1097pt" height="416pt" viewBox="0.00 0.00 1097.37 416.00">
<g id="graph0" class="graph" transform="scale(1 1) rotate(0) translate(4 412)">
<title>G</title>
<polygon fill="#ffffff" stroke="transparent" points="-4,4 -4,-412 1093.3745,-412 1093.3745,4 -4,4"/>
<!-- Event -->
<g id="node1" class="node">
<title>Event</title>
<polygon fill="#add8e6" stroke="transparent" points="421.423,-131 421.423,-153 454.423,-153 454.423,-131 421.423,-131"/>
<polygon fill="none" stroke="#000000" points="421.423,-131 421.423,-153 454.423,-153 454.423,-131 421.423,-131"/>
<text text-anchor="start" x="426.2595" y="-139" font-family="Times,serif" font-size="10.00" fill="#000000">Event</text>
</g>
<!-- Transformation -->
<g id="node7" class="node">
<title>Transformation</title>
<ellipse fill="#add8e6" stroke="#000000" cx="570.8907" cy="-142" rx="32.9731" ry="32.9731"/>
<text text-anchor="middle" x="570.8907" y="-139" font-family="Times,serif" font-size="10.00" fill="#000000">Transformation</text>
</g>
<!-- Event&#45;&gt;Transformation -->
<g id="edge6" class="edge">
<title>Event-&gt;Transformation</title>
<path fill="none" stroke="#000000" d="M464.4322,-142C482.5473,-142 506.8025,-142 527.5854,-142"/>
<polygon fill="#000000" stroke="#000000" points="527.7755,-145.5001 537.7755,-142 527.7755,-138.5001 527.7755,-145.5001"/>
</g>
<!-- Workspace -->
<g id="node2" class="node">
<title>Workspace</title>
<polygon fill="#add8e6" stroke="transparent" points="189.923,-386 189.923,-408 374.923,-408 374.923,-386 189.923,-386"/>
<polygon fill="none" stroke="#000000" points="189.923,-386 189.923,-408 374.923,-408 374.923,-386 189.923,-386"/>
<text text-anchor="start" x="259.936" y="-394" font-family="Times,serif" font-size="10.00" fill="#000000">Workspace</text>
<polygon fill="#add8e6" stroke="transparent" points="189.923,-364 189.923,-386 262.923,-386 262.923,-364 189.923,-364"/>
<polygon fill="none" stroke="#000000" points="189.923,-364 189.923,-386 262.923,-386 262.923,-364 189.923,-364"/>
<text text-anchor="start" x="214.485" y="-372" font-family="Times,serif" font-size="10.00" fill="#000000">Name</text>
<polygon fill="#add8e6" stroke="transparent" points="262.923,-364 262.923,-386 318.923,-386 318.923,-364 262.923,-364"/>
<polygon fill="none" stroke="#000000" points="262.923,-364 262.923,-386 318.923,-386 318.923,-364 262.923,-364"/>
<text text-anchor="start" x="267.594" y="-372" font-family="Times,serif" font-size="10.00" fill="#000000">2020-01-01</text>
<polygon fill="#add8e6" stroke="transparent" points="318.923,-364 318.923,-386 374.923,-386 374.923,-364 318.923,-364"/>
<polygon fill="none" stroke="#000000" points="318.923,-364 318.923,-386 374.923,-386 374.923,-364 318.923,-364"/>
<text text-anchor="start" x="323.594" y="-372" font-family="Times,serif" font-size="10.00" fill="#000000">2020-03-12</text>
<polygon fill="none" stroke="#000000" points="189.923,-342 189.923,-364 262.923,-364 262.923,-342 189.923,-342"/>
<text text-anchor="start" x="222.5335" y="-350" font-family="Times,serif" font-size="10.00" fill="#000000">id</text>
<polygon fill="none" stroke="#000000" points="262.923,-342 262.923,-364 318.923,-364 318.923,-342 262.923,-342"/>
<text text-anchor="start" x="283.7035" y="-350" font-family="Times,serif" font-size="10.00" fill="#000000">W1</text>
<polygon fill="none" stroke="#000000" points="318.923,-342 318.923,-364 374.923,-364 374.923,-342 318.923,-342"/>
<text text-anchor="start" x="339.7035" y="-350" font-family="Times,serif" font-size="10.00" fill="#000000">W1</text>
<polygon fill="none" stroke="#000000" points="189.923,-320 189.923,-342 262.923,-342 262.923,-320 189.923,-320"/>
<text text-anchor="start" x="194.766" y="-328" font-family="Times,serif" font-size="10.00" fill="#000000">company_name</text>
<polygon fill="none" stroke="#000000" points="262.923,-320 262.923,-342 318.923,-342 318.923,-320 262.923,-320"/>
<text text-anchor="start" x="281.4795" y="-328" font-family="Times,serif" font-size="10.00" fill="#000000">IBM</text>
<polygon fill="none" stroke="#000000" points="318.923,-320 318.923,-342 374.923,-342 374.923,-320 318.923,-320"/>
<text text-anchor="start" x="337.4795" y="-328" font-family="Times,serif" font-size="10.00" fill="#000000">IBM</text>
<polygon fill="none" stroke="#000000" points="189.923,-298 189.923,-320 262.923,-320 262.923,-298 189.923,-298"/>
<text text-anchor="start" x="206.705" y="-306" font-family="Times,serif" font-size="10.00" fill="#000000">plan_type</text>
<polygon fill="none" stroke="#000000" points="262.923,-298 262.923,-320 318.923,-320 318.923,-298 262.923,-298"/>
<text text-anchor="start" x="282.04" y="-306" font-family="Times,serif" font-size="10.00" fill="#000000">Free</text>
<polygon fill="none" stroke="#000000" points="318.923,-298 318.923,-320 374.923,-320 374.923,-298 318.923,-298"/>
<text text-anchor="start" x="338.0345" y="-306" font-family="Times,serif" font-size="10.00" fill="#000000">Paid</text>
<polygon fill="none" stroke="#000000" points="189.923,-276 189.923,-298 262.923,-298 262.923,-276 189.923,-276"/>
<text text-anchor="start" x="206.987" y="-284" font-family="Times,serif" font-size="10.00" fill="#000000">start_date</text>
<polygon fill="none" stroke="#000000" points="262.923,-276 262.923,-298 318.923,-298 318.923,-276 262.923,-276"/>
<text text-anchor="start" x="267.594" y="-284" font-family="Times,serif" font-size="10.00" fill="#000000">2020-01-01</text>
<polygon fill="none" stroke="#000000" points="318.923,-276 318.923,-298 374.923,-298 374.923,-276 318.923,-276"/>
<text text-anchor="start" x="323.594" y="-284" font-family="Times,serif" font-size="10.00" fill="#000000">2020-03-12</text>
<polygon fill="none" stroke="#000000" points="189.923,-254 189.923,-276 262.923,-276 262.923,-254 189.923,-254"/>
<text text-anchor="start" x="208.375" y="-262" font-family="Times,serif" font-size="10.00" fill="#000000">end_date</text>
<polygon fill="none" stroke="#000000" points="262.923,-254 262.923,-276 318.923,-276 318.923,-254 262.923,-254"/>
<text text-anchor="start" x="267.594" y="-262" font-family="Times,serif" font-size="10.00" fill="#000000">2020-03-12</text>
<polygon fill="none" stroke="#000000" points="318.923,-254 318.923,-276 374.923,-276 374.923,-254 318.923,-254"/>
<text text-anchor="start" x="338.0345" y="-262" font-family="Times,serif" font-size="10.00" fill="#000000">Null</text>
<polygon fill="none" stroke="#000000" points="189.923,-232 189.923,-254 262.923,-254 262.923,-232 189.923,-232"/>
<text text-anchor="start" x="198.662" y="-240" font-family="Times,serif" font-size="10.00" fill="#000000">curent_record</text>
<polygon fill="none" stroke="#000000" points="262.923,-232 262.923,-254 318.923,-254 318.923,-232 262.923,-232"/>
<text text-anchor="start" x="280.3705" y="-240" font-family="Times,serif" font-size="10.00" fill="#000000">False</text>
<polygon fill="none" stroke="#000000" points="318.923,-232 318.923,-254 374.923,-254 374.923,-232 318.923,-232"/>
<text text-anchor="start" x="337.4845" y="-240" font-family="Times,serif" font-size="10.00" fill="#000000">True</text>
</g>
<!-- Workspace&#45;&gt;Event -->
<g id="edge1" class="edge">
<title>Workspace-&gt;Event</title>
<path fill="none" stroke="#000000" d="M366.7379,-231.7936C369.3485,-228.8448 371.9163,-225.9084 374.423,-223 389.6339,-205.3514 405.7453,-184.5954 417.8673,-168.5127"/>
<polygon fill="#000000" stroke="#000000" points="418.1666,-168.113 427.7624,-162.8053 421.1635,-164.1106 424.1603,-160.1082 424.1603,-160.1082 424.1603,-160.1082 421.1635,-164.1106 420.5581,-157.411 418.1666,-168.113 418.1666,-168.113"/>
</g>
<!-- Company -->
<g id="node3" class="node">
<title>Company</title>
<polygon fill="#add8e6" stroke="transparent" points="257.923,-185 257.923,-207 305.923,-207 305.923,-185 257.923,-185"/>
<polygon fill="none" stroke="#000000" points="257.923,-185 257.923,-207 305.923,-207 305.923,-185 257.923,-185"/>
<text text-anchor="start" x="262.4795" y="-193" font-family="Times,serif" font-size="10.00" fill="#000000">Company</text>
</g>
<!-- Company&#45;&gt;Event -->
<g id="edge2" class="edge">
<title>Company-&gt;Event</title>
<path fill="none" stroke="#000000" d="M309.3188,-188.9383C327.8758,-183.9276 352.8502,-176.7392 374.423,-169 383.1307,-165.8761 392.3596,-162.1596 400.9902,-158.4984"/>
<polygon fill="#000000" stroke="#000000" points="401.241,-158.3901 412.2057,-158.5537 405.8307,-156.4065 410.4205,-154.423 410.4205,-154.423 410.4205,-154.423 405.8307,-156.4065 408.6352,-150.2922 401.241,-158.3901 401.241,-158.3901"/>
</g>
<!-- User -->
<g id="node4" class="node">
<title>User</title>
<polygon fill="#add8e6" stroke="transparent" points="267.923,-131 267.923,-153 295.923,-153 295.923,-131 267.923,-131"/>
<polygon fill="none" stroke="#000000" points="267.923,-131 267.923,-153 295.923,-153 295.923,-131 267.923,-131"/>
<text text-anchor="start" x="272.485" y="-139" font-family="Times,serif" font-size="10.00" fill="#000000">User</text>
</g>
<!-- User&#45;&gt;Event -->
<g id="edge3" class="edge">
<title>User-&gt;Event</title>
<path fill="none" stroke="#000000" d="M309.009,-142C334.2397,-142 372.078,-142 400.152,-142"/>
<polygon fill="#000000" stroke="#000000" points="400.3869,-142.0001 410.387,-146.5 405.3869,-142 410.3869,-142 410.3869,-142 410.3869,-142 405.3869,-142 410.3869,-137.5 400.3869,-142.0001 400.3869,-142.0001"/>
</g>
<!-- Date -->
<g id="node5" class="node">
<title>Date</title>
<polygon fill="#add8e6" stroke="transparent" points="267.923,-84 267.923,-106 295.923,-106 295.923,-84 267.923,-84"/>
<polygon fill="none" stroke="#000000" points="267.923,-84 267.923,-106 295.923,-106 295.923,-84 267.923,-84"/>
<text text-anchor="start" x="272.485" y="-92" font-family="Times,serif" font-size="10.00" fill="#000000">Date</text>
<polygon fill="none" stroke="#000000" points="267.923,-62 267.923,-84 295.923,-84 295.923,-62 267.923,-62"/>
<text text-anchor="start" x="272.923" y="-70" font-family="Times,serif" font-size="10.00" fill="#000000">..</text>
</g>
<!-- Date&#45;&gt;Event -->
<g id="edge4" class="edge">
<title>Date-&gt;Event</title>
<path fill="none" stroke="#000000" d="M309.2479,-92.5111C327.7741,-98.4392 352.7409,-106.7363 374.423,-115 383.0675,-118.2946 392.2716,-122.0782 400.8983,-125.75"/>
<polygon fill="#000000" stroke="#000000" points="401.1487,-125.8579 408.551,-133.9485 405.7404,-127.8369 410.3321,-129.8159 410.3321,-129.8159 410.3321,-129.8159 405.7404,-127.8369 412.1132,-125.6834 401.1487,-125.8579 401.1487,-125.8579"/>
</g>
<!-- Board -->
<g id="node6" class="node">
<title>Board</title>
<polygon fill="#add8e6" stroke="transparent" points="264.923,-22 264.923,-44 298.923,-44 298.923,-22 264.923,-22"/>
<polygon fill="none" stroke="#000000" points="264.923,-22 264.923,-44 298.923,-44 298.923,-22 264.923,-22"/>
<text text-anchor="start" x="269.7045" y="-30" font-family="Times,serif" font-size="10.00" fill="#000000">Board</text>
<polygon fill="none" stroke="#000000" points="264.923,0 264.923,-22 298.923,-22 298.923,0 264.923,0"/>
<text text-anchor="start" x="269.923" y="-8" font-family="Times,serif" font-size="10.00" fill="#000000">..</text>
</g>
<!-- Board&#45;&gt;Event -->
<g id="edge5" class="edge">
<title>Board-&gt;Event</title>
<path fill="none" stroke="#000000" d="M309.1314,-26.4331C328.7704,-30.6858 355.1193,-38.6548 374.423,-53 396.099,-69.1081 413.1804,-94.9008 424.0568,-114.5825"/>
<polygon fill="#000000" stroke="#000000" points="424.2002,-114.8525 424.9163,-125.795 426.5454,-119.2684 428.8906,-123.6843 428.8906,-123.6843 428.8906,-123.6843 426.5454,-119.2684 432.8649,-121.5736 424.2002,-114.8525 424.2002,-114.8525"/>
</g>
<!-- Categorized_User -->
<g id="node9" class="node">
<title>Categorized_User</title>
<polygon fill="#add8e6" stroke="transparent" points="677.8585,-254 677.8585,-276 854.8585,-276 854.8585,-254 677.8585,-254"/>
<polygon fill="none" stroke="#000000" points="677.8585,-254 677.8585,-276 854.8585,-276 854.8585,-254 677.8585,-254"/>
<text text-anchor="start" x="731.5145" y="-262" font-family="Times,serif" font-size="10.00" fill="#000000">Categorized User</text>
<polygon fill="#add8e6" stroke="transparent" points="677.8585,-232 677.8585,-254 742.8585,-254 742.8585,-232 677.8585,-232"/>
<polygon fill="none" stroke="#000000" points="677.8585,-232 677.8585,-254 742.8585,-254 742.8585,-232 677.8585,-232"/>
<text text-anchor="start" x="698.4205" y="-240" font-family="Times,serif" font-size="10.00" fill="#000000">Name</text>
<polygon fill="#add8e6" stroke="transparent" points="742.8585,-232 742.8585,-254 798.8585,-254 798.8585,-232 742.8585,-232"/>
<polygon fill="none" stroke="#000000" points="742.8585,-232 742.8585,-254 798.8585,-254 798.8585,-232 742.8585,-232"/>
<text text-anchor="start" x="747.5295" y="-240" font-family="Times,serif" font-size="10.00" fill="#000000">2020-01-01</text>
<polygon fill="#add8e6" stroke="transparent" points="798.8585,-232 798.8585,-254 854.8585,-254 854.8585,-232 798.8585,-232"/>
<polygon fill="none" stroke="#000000" points="798.8585,-232 798.8585,-254 854.8585,-254 854.8585,-232 798.8585,-232"/>
<text text-anchor="start" x="803.5295" y="-240" font-family="Times,serif" font-size="10.00" fill="#000000">2020-03-15</text>
<polygon fill="none" stroke="#000000" points="677.8585,-210 677.8585,-232 742.8585,-232 742.8585,-210 677.8585,-210"/>
<text text-anchor="start" x="682.8585" y="-218" font-family="Times,serif" font-size="10.00" fill="#000000">User ID</text>
<polygon fill="none" stroke="#000000" points="742.8585,-210 742.8585,-232 798.8585,-232 798.8585,-210 742.8585,-210"/>
<text text-anchor="start" x="747.8585" y="-218" font-family="Times,serif" font-size="10.00" fill="#000000">U1</text>
<polygon fill="none" stroke="#000000" points="798.8585,-210 798.8585,-232 854.8585,-232 854.8585,-210 798.8585,-210"/>
<text text-anchor="start" x="803.8585" y="-218" font-family="Times,serif" font-size="10.00" fill="#000000">U1</text>
<polygon fill="none" stroke="#000000" points="677.8585,-188 677.8585,-210 742.8585,-210 742.8585,-188 677.8585,-188"/>
<text text-anchor="start" x="682.8585" y="-196" font-family="Times,serif" font-size="10.00" fill="#000000">Plan type</text>
<polygon fill="none" stroke="#000000" points="742.8585,-188 742.8585,-210 798.8585,-210 798.8585,-188 742.8585,-188"/>
<text text-anchor="start" x="747.8585" y="-196" font-family="Times,serif" font-size="10.00" fill="#000000">..</text>
<polygon fill="none" stroke="#000000" points="798.8585,-188 798.8585,-210 854.8585,-210 854.8585,-188 798.8585,-188"/>
<text text-anchor="start" x="803.8585" y="-196" font-family="Times,serif" font-size="10.00" fill="#000000">..</text>
<polygon fill="none" stroke="#000000" points="677.8585,-166 677.8585,-188 742.8585,-188 742.8585,-166 677.8585,-166"/>
<text text-anchor="start" x="682.458" y="-174" font-family="Times,serif" font-size="10.00" fill="#000000">User category</text>
<polygon fill="none" stroke="#000000" points="742.8585,-166 742.8585,-188 798.8585,-188 798.8585,-166 742.8585,-166"/>
<text text-anchor="start" x="747.8585" y="-174" font-family="Times,serif" font-size="10.00" fill="#000000">Casual</text>
<polygon fill="none" stroke="#000000" points="798.8585,-166 798.8585,-188 854.8585,-188 854.8585,-166 798.8585,-166"/>
<text text-anchor="start" x="803.8585" y="-174" font-family="Times,serif" font-size="10.00" fill="#000000">Core</text>
<polygon fill="none" stroke="#000000" points="677.8585,-144 677.8585,-166 742.8585,-166 742.8585,-144 677.8585,-144"/>
<text text-anchor="start" x="690.9225" y="-152" font-family="Times,serif" font-size="10.00" fill="#000000">start_date</text>
<polygon fill="none" stroke="#000000" points="742.8585,-144 742.8585,-166 798.8585,-166 798.8585,-144 742.8585,-144"/>
<text text-anchor="start" x="747.5295" y="-152" font-family="Times,serif" font-size="10.00" fill="#000000">2020-01-01</text>
<polygon fill="none" stroke="#000000" points="798.8585,-144 798.8585,-166 854.8585,-166 854.8585,-144 798.8585,-144"/>
<text text-anchor="start" x="803.5295" y="-152" font-family="Times,serif" font-size="10.00" fill="#000000">2020-03-15</text>
<polygon fill="none" stroke="#000000" points="677.8585,-122 677.8585,-144 742.8585,-144 742.8585,-122 677.8585,-122"/>
<text text-anchor="start" x="692.3105" y="-130" font-family="Times,serif" font-size="10.00" fill="#000000">end_date</text>
<polygon fill="none" stroke="#000000" points="742.8585,-122 742.8585,-144 798.8585,-144 798.8585,-122 742.8585,-122"/>
<text text-anchor="start" x="747.5295" y="-130" font-family="Times,serif" font-size="10.00" fill="#000000">2020-03-15</text>
<polygon fill="none" stroke="#000000" points="798.8585,-122 798.8585,-144 854.8585,-144 854.8585,-122 798.8585,-122"/>
<text text-anchor="start" x="817.97" y="-130" font-family="Times,serif" font-size="10.00" fill="#000000">Null</text>
<polygon fill="none" stroke="#000000" points="677.8585,-100 677.8585,-122 742.8585,-122 742.8585,-100 677.8585,-100"/>
<text text-anchor="start" x="682.5975" y="-108" font-family="Times,serif" font-size="10.00" fill="#000000">curent_record</text>
<polygon fill="none" stroke="#000000" points="742.8585,-100 742.8585,-122 798.8585,-122 798.8585,-100 742.8585,-100"/>
<text text-anchor="start" x="760.306" y="-108" font-family="Times,serif" font-size="10.00" fill="#000000">False</text>
<polygon fill="none" stroke="#000000" points="798.8585,-100 798.8585,-122 854.8585,-122 854.8585,-100 798.8585,-100"/>
<text text-anchor="start" x="817.42" y="-108" font-family="Times,serif" font-size="10.00" fill="#000000">True</text>
</g>
<!-- Transformation&#45;&gt;Categorized_User -->
<g id="edge7" class="edge">
<title>Transformation-&gt;Categorized_User</title>
<path fill="none" stroke="#000000" d="M603.0857,-149.596C620.8775,-153.7937 644.0392,-159.2584 667.2836,-164.7426"/>
<polygon fill="#000000" stroke="#000000" points="666.6986,-168.2006 677.2351,-167.0905 668.3061,-161.3876 666.6986,-168.2006"/>
</g>
<!-- Aggregation -->
<g id="node8" class="node">
<title>Aggregation</title>
<ellipse fill="#add8e6" stroke="#000000" cx="916.8665" cy="-188" rx="26.516" ry="26.516"/>
<text text-anchor="middle" x="916.8665" y="-185" font-family="Times,serif" font-size="10.00" fill="#000000">Aggregation</text>
</g>
<!-- Agg_Event -->
<g id="node10" class="node">
<title>Agg_Event</title>
<polygon fill="#add8e6" stroke="transparent" points="979.3745,-221 979.3745,-243 1089.3745,-243 1089.3745,-221 979.3745,-221"/>
<polygon fill="none" stroke="#000000" points="979.3745,-221 979.3745,-243 1089.3745,-243 1089.3745,-221 979.3745,-221"/>
<text text-anchor="start" x="984.121" y="-229" font-family="Times,serif" font-size="10.00" fill="#000000">Engaged User Aggregate</text>
<polygon fill="none" stroke="#000000" points="979.3745,-199 979.3745,-221 1089.3745,-221 1089.3745,-199 979.3745,-199"/>
<text text-anchor="start" x="984.3745" y="-207" font-family="Times,serif" font-size="10.00" fill="#000000">Date</text>
<polygon fill="none" stroke="#000000" points="979.3745,-177 979.3745,-199 1089.3745,-199 1089.3745,-177 979.3745,-177"/>
<text text-anchor="start" x="984.3745" y="-185" font-family="Times,serif" font-size="10.00" fill="#000000">User Catgory</text>
<polygon fill="none" stroke="#000000" points="979.3745,-155 979.3745,-177 1089.3745,-177 1089.3745,-155 979.3745,-155"/>
<text text-anchor="start" x="984.3745" y="-163" font-family="Times,serif" font-size="10.00" fill="#000000">Plan type</text>
<polygon fill="none" stroke="#000000" points="979.3745,-133 979.3745,-155 1089.3745,-155 1089.3745,-133 979.3745,-133"/>
<text text-anchor="start" x="984.3745" y="-141" font-family="Times,serif" font-size="10.00" fill="#000000"># User</text>
</g>
<!-- Aggregation&#45;&gt;Agg_Event -->
<g id="edge9" class="edge">
<title>Aggregation-&gt;Agg_Event</title>
<path fill="none" stroke="#000000" d="M943.5309,-188C951.2059,-188 959.9348,-188 968.8747,-188"/>
<polygon fill="#000000" stroke="#000000" points="969.0131,-191.5001 979.0131,-188 969.013,-184.5001 969.0131,-191.5001"/>
</g>
<!-- Categorized_User&#45;&gt;Aggregation -->
<g id="edge8" class="edge">
<title>Categorized_User-&gt;Aggregation</title>
<path fill="none" stroke="#000000" d="M854.5739,-188C863.4897,-188 872.1517,-188 880.0418,-188"/>
<polygon fill="#000000" stroke="#000000" points="880.2738,-191.5001 890.2738,-188 880.2738,-184.5001 880.2738,-191.5001"/>
</g>
<!-- Workspace_comment -->
<g id="node11" class="node">
<title>Workspace_comment</title>
<polygon fill="#ffff00" stroke="#000000" points="147.6351,-338 -.2121,-338 -.2121,-302 153.6351,-302 153.6351,-332 147.6351,-338"/>
<polyline fill="none" stroke="#000000" points="147.6351,-338 147.6351,-332 "/>
<polyline fill="none" stroke="#000000" points="153.6351,-332 147.6351,-332 "/>
<text text-anchor="middle" x="76.7115" y="-322.7" font-family="Times,serif" font-size="9.00" fill="#000000">Not key/value store</text>
<text text-anchor="middle" x="76.7115" y="-311.9" font-family="Times,serif" font-size="9.00" fill="#000000">Represented this way for screen real estate</text>
</g>
<!-- Workspace_comment&#45;&gt;Workspace -->
<g id="edge10" class="edge">
<title>Workspace_comment-&gt;Workspace</title>
<path fill="none" stroke="#000000" stroke-dasharray="5,2" d="M153.7085,-320C165.309,-320 177.3759,-320 189.2632,-320"/>
</g>
<!-- Categorized_User_comment -->
<g id="node12" class="node">
<title>Categorized_User_comment</title>
<polygon fill="#ffff00" stroke="#000000" points="635.3263,-277.3002 500.4552,-277.3002 500.4552,-192.6998 641.3263,-192.6998 641.3263,-271.3002 635.3263,-277.3002"/>
<polyline fill="none" stroke="#000000" points="635.3263,-277.3002 635.3263,-271.3002 "/>
<polyline fill="none" stroke="#000000" points="641.3263,-271.3002 635.3263,-271.3002 "/>
<text text-anchor="middle" x="570.8907" y="-269.3" font-family="Times,serif" font-size="9.00" fill="#000000">Materialization of user level data</text>
<text text-anchor="middle" x="570.8907" y="-248.5" font-family="Times,serif" font-size="9.00" fill="#000000">User transitions category on 03/15</text>
<text text-anchor="middle" x="570.8907" y="-237.7" font-family="Times,serif" font-size="9.00" fill="#000000">based on event data</text>
<text text-anchor="middle" x="570.8907" y="-216.9" font-family="Times,serif" font-size="9.00" fill="#000000">Later user categorization logic changes</text>
<text text-anchor="middle" x="570.8907" y="-206.1" font-family="Times,serif" font-size="9.00" fill="#000000">Restatement is requested for period:</text>
<text text-anchor="middle" x="570.8907" y="-195.3" font-family="Times,serif" font-size="9.00" fill="#000000"> 01-Mar to 31-Mar</text>
</g>
<!-- Categorized_User_comment&#45;&gt;Categorized_User -->
<g id="edge11" class="edge">
<title>Categorized_User_comment-&gt;Categorized_User</title>
<path fill="none" stroke="#000000" stroke-dasharray="5,2" d="M641.5542,-217.9655C653.1058,-215.1808 665.2023,-212.2647 677.1228,-209.3911"/>
</g>
</g>
</svg>