<?xml version="1.0" encoding="UTF-8" standalone="no"?><!DOCTYPE svg PUBLIC "-//W3C//DTD SVG 1.1//EN" "http://www.w3.org/Graphics/SVG/1.1/DTD/svg11.dtd"><!-- Generated by graphviz version 2.40.1 (20161225.0304)
 --><!-- Title: G Pages: 1 --><svg xmlns="http://www.w3.org/2000/svg" xmlns:xlink="http://www.w3.org/1999/xlink" width="1127pt" height="416pt" viewBox="0.00 0.00 1126.90 416.00">
<g id="graph0" class="graph" transform="scale(1 1) rotate(0) translate(4 412)">
<title>G</title>
<polygon fill="#ffffff" stroke="transparent" points="-4,4 -4,-412 1122.8972,-412 1122.8972,4 -4,4"/>
<!-- Event -->
<g id="node1" class="node">
<title>Event</title>
<polygon fill="#add8e6" stroke="transparent" points="410.6923,-131 410.6923,-153 443.6923,-153 443.6923,-131 410.6923,-131"/>
<polygon fill="none" stroke="#000000" points="410.6923,-131 410.6923,-153 443.6923,-153 443.6923,-131 410.6923,-131"/>
<text text-anchor="start" x="415.5288" y="-139" font-family="Times,serif" font-size="10.00" fill="#000000">Event</text>
</g>
<!-- Transformation -->
<g id="node7" class="node">
<title>Transformation</title>
<ellipse fill="#add8e6" stroke="#000000" cx="580.2868" cy="-142" rx="32.9731" ry="32.9731"/>
<text text-anchor="middle" x="580.2868" y="-139" font-family="Times,serif" font-size="10.00" fill="#000000">Transformation</text>
</g>
<!-- Event&#45;&gt;Transformation -->
<g id="edge6" class="edge">
<title>Event-&gt;Transformation</title>
<path fill="none" stroke="#000000" d="M453.7983,-142C476.759,-142 510.1049,-142 536.7946,-142"/>
<polygon fill="#000000" stroke="#000000" points="537.0315,-145.5001 547.0315,-142 537.0314,-138.5001 537.0315,-145.5001"/>
</g>
<!-- Workspace -->
<g id="node2" class="node">
<title>Workspace</title>
<polygon fill="#add8e6" stroke="transparent" points="179.1923,-386 179.1923,-408 364.1923,-408 364.1923,-386 179.1923,-386"/>
<polygon fill="none" stroke="#000000" points="179.1923,-386 179.1923,-408 364.1923,-408 364.1923,-386 179.1923,-386"/>
<text text-anchor="start" x="249.2053" y="-394" font-family="Times,serif" font-size="10.00" fill="#000000">Workspace</text>
<polygon fill="#add8e6" stroke="transparent" points="179.1923,-364 179.1923,-386 252.1923,-386 252.1923,-364 179.1923,-364"/>
<polygon fill="none" stroke="#000000" points="179.1923,-364 179.1923,-386 252.1923,-386 252.1923,-364 179.1923,-364"/>
<text text-anchor="start" x="203.7543" y="-372" font-family="Times,serif" font-size="10.00" fill="#000000">Name</text>
<polygon fill="#add8e6" stroke="transparent" points="252.1923,-364 252.1923,-386 308.1923,-386 308.1923,-364 252.1923,-364"/>
<polygon fill="none" stroke="#000000" points="252.1923,-364 252.1923,-386 308.1923,-386 308.1923,-364 252.1923,-364"/>
<text text-anchor="start" x="256.8633" y="-372" font-family="Times,serif" font-size="10.00" fill="#000000">2020-01-01</text>
<polygon fill="#add8e6" stroke="transparent" points="308.1923,-364 308.1923,-386 364.1923,-386 364.1923,-364 308.1923,-364"/>
<polygon fill="none" stroke="#000000" points="308.1923,-364 308.1923,-386 364.1923,-386 364.1923,-364 308.1923,-364"/>
<text text-anchor="start" x="312.8633" y="-372" font-family="Times,serif" font-size="10.00" fill="#000000">2020-03-12</text>
<polygon fill="none" stroke="#000000" points="179.1923,-342 179.1923,-364 252.1923,-364 252.1923,-342 179.1923,-342"/>
<text text-anchor="start" x="211.8028" y="-350" font-family="Times,serif" font-size="10.00" fill="#000000">id</text>
<polygon fill="none" stroke="#000000" points="252.1923,-342 252.1923,-364 308.1923,-364 308.1923,-342 252.1923,-342"/>
<text text-anchor="start" x="272.9728" y="-350" font-family="Times,serif" font-size="10.00" fill="#000000">W1</text>
<polygon fill="none" stroke="#000000" points="308.1923,-342 308.1923,-364 364.1923,-364 364.1923,-342 308.1923,-342"/>
<text text-anchor="start" x="328.9728" y="-350" font-family="Times,serif" font-size="10.00" fill="#000000">W1</text>
<polygon fill="none" stroke="#000000" points="179.1923,-320 179.1923,-342 252.1923,-342 252.1923,-320 179.1923,-320"/>
<text text-anchor="start" x="184.0353" y="-328" font-family="Times,serif" font-size="10.00" fill="#000000">company_name</text>
<polygon fill="none" stroke="#000000" points="252.1923,-320 252.1923,-342 308.1923,-342 308.1923,-320 252.1923,-320"/>
<text text-anchor="start" x="270.7488" y="-328" font-family="Times,serif" font-size="10.00" fill="#000000">IBM</text>
<polygon fill="none" stroke="#000000" points="308.1923,-320 308.1923,-342 364.1923,-342 364.1923,-320 308.1923,-320"/>
<text text-anchor="start" x="326.7488" y="-328" font-family="Times,serif" font-size="10.00" fill="#000000">IBM</text>
<polygon fill="none" stroke="#000000" points="179.1923,-298 179.1923,-320 252.1923,-320 252.1923,-298 179.1923,-298"/>
<text text-anchor="start" x="195.9743" y="-306" font-family="Times,serif" font-size="10.00" fill="#000000">plan_type</text>
<polygon fill="none" stroke="#000000" points="252.1923,-298 252.1923,-320 308.1923,-320 308.1923,-298 252.1923,-298"/>
<text text-anchor="start" x="271.3093" y="-306" font-family="Times,serif" font-size="10.00" fill="#000000">Free</text>
<polygon fill="none" stroke="#000000" points="308.1923,-298 308.1923,-320 364.1923,-320 364.1923,-298 308.1923,-298"/>
<text text-anchor="start" x="327.3038" y="-306" font-family="Times,serif" font-size="10.00" fill="#000000">Paid</text>
<polygon fill="none" stroke="#000000" points="179.1923,-276 179.1923,-298 252.1923,-298 252.1923,-276 179.1923,-276"/>
<text text-anchor="start" x="196.2563" y="-284" font-family="Times,serif" font-size="10.00" fill="#000000">start_date</text>
<polygon fill="none" stroke="#000000" points="252.1923,-276 252.1923,-298 308.1923,-298 308.1923,-276 252.1923,-276"/>
<text text-anchor="start" x="256.8633" y="-284" font-family="Times,serif" font-size="10.00" fill="#000000">2020-01-01</text>
<polygon fill="none" stroke="#000000" points="308.1923,-276 308.1923,-298 364.1923,-298 364.1923,-276 308.1923,-276"/>
<text text-anchor="start" x="312.8633" y="-284" font-family="Times,serif" font-size="10.00" fill="#000000">2020-03-12</text>
<polygon fill="none" stroke="#000000" points="179.1923,-254 179.1923,-276 252.1923,-276 252.1923,-254 179.1923,-254"/>
<text text-anchor="start" x="197.6443" y="-262" font-family="Times,serif" font-size="10.00" fill="#000000">end_date</text>
<polygon fill="none" stroke="#000000" points="252.1923,-254 252.1923,-276 308.1923,-276 308.1923,-254 252.1923,-254"/>
<text text-anchor="start" x="256.8633" y="-262" font-family="Times,serif" font-size="10.00" fill="#000000">2020-03-12</text>
<polygon fill="none" stroke="#000000" points="308.1923,-254 308.1923,-276 364.1923,-276 364.1923,-254 308.1923,-254"/>
<text text-anchor="start" x="327.3038" y="-262" font-family="Times,serif" font-size="10.00" fill="#000000">Null</text>
<polygon fill="none" stroke="#000000" points="179.1923,-232 179.1923,-254 252.1923,-254 252.1923,-232 179.1923,-232"/>
<text text-anchor="start" x="187.9313" y="-240" font-family="Times,serif" font-size="10.00" fill="#000000">curent_record</text>
<polygon fill="none" stroke="#000000" points="252.1923,-232 252.1923,-254 308.1923,-254 308.1923,-232 252.1923,-232"/>
<text text-anchor="start" x="269.6398" y="-240" font-family="Times,serif" font-size="10.00" fill="#000000">False</text>
<polygon fill="none" stroke="#000000" points="308.1923,-232 308.1923,-254 364.1923,-254 364.1923,-232 308.1923,-232"/>
<text text-anchor="start" x="326.7538" y="-240" font-family="Times,serif" font-size="10.00" fill="#000000">True</text>
</g>
<!-- Workspace&#45;&gt;Event -->
<g id="edge1" class="edge">
<title>Workspace-&gt;Event</title>
<path fill="none" stroke="#000000" d="M356.0072,-231.7936C358.6178,-228.8448 361.1856,-225.9084 363.6923,-223 378.9032,-205.3514 395.0146,-184.5954 407.1366,-168.5127"/>
<polygon fill="#000000" stroke="#000000" points="407.4359,-168.113 417.0317,-162.8053 410.4328,-164.1106 413.4296,-160.1082 413.4296,-160.1082 413.4296,-160.1082 410.4328,-164.1106 409.8274,-157.411 407.4359,-168.113 407.4359,-168.113"/>
</g>
<!-- Company -->
<g id="node3" class="node">
<title>Company</title>
<polygon fill="#add8e6" stroke="transparent" points="247.1923,-185 247.1923,-207 295.1923,-207 295.1923,-185 247.1923,-185"/>
<polygon fill="none" stroke="#000000" points="247.1923,-185 247.1923,-207 295.1923,-207 295.1923,-185 247.1923,-185"/>
<text text-anchor="start" x="251.7488" y="-193" font-family="Times,serif" font-size="10.00" fill="#000000">Company</text>
</g>
<!-- Company&#45;&gt;Event -->
<g id="edge2" class="edge">
<title>Company-&gt;Event</title>
<path fill="none" stroke="#000000" d="M298.5881,-188.9383C317.1451,-183.9276 342.1195,-176.7392 363.6923,-169 372.4,-165.8761 381.6289,-162.1596 390.2595,-158.4984"/>
<polygon fill="#000000" stroke="#000000" points="390.5103,-158.3901 401.475,-158.5537 395.1,-156.4065 399.6898,-154.423 399.6898,-154.423 399.6898,-154.423 395.1,-156.4065 397.9045,-150.2922 390.5103,-158.3901 390.5103,-158.3901"/>
</g>
<!-- User -->
<g id="node4" class="node">
<title>User</title>
<polygon fill="#add8e6" stroke="transparent" points="257.1923,-131 257.1923,-153 285.1923,-153 285.1923,-131 257.1923,-131"/>
<polygon fill="none" stroke="#000000" points="257.1923,-131 257.1923,-153 285.1923,-153 285.1923,-131 257.1923,-131"/>
<text text-anchor="start" x="261.7543" y="-139" font-family="Times,serif" font-size="10.00" fill="#000000">User</text>
</g>
<!-- User&#45;&gt;Event -->
<g id="edge3" class="edge">
<title>User-&gt;Event</title>
<path fill="none" stroke="#000000" d="M298.2783,-142C323.509,-142 361.3473,-142 389.4213,-142"/>
<polygon fill="#000000" stroke="#000000" points="389.6562,-142.0001 399.6563,-146.5 394.6562,-142 399.6562,-142 399.6562,-142 399.6562,-142 394.6562,-142 399.6562,-137.5 389.6562,-142.0001 389.6562,-142.0001"/>
</g>
<!-- Date -->
<g id="node5" class="node">
<title>Date</title>
<polygon fill="#add8e6" stroke="transparent" points="257.1923,-84 257.1923,-106 285.1923,-106 285.1923,-84 257.1923,-84"/>
<polygon fill="none" stroke="#000000" points="257.1923,-84 257.1923,-106 285.1923,-106 285.1923,-84 257.1923,-84"/>
<text text-anchor="start" x="261.7543" y="-92" font-family="Times,serif" font-size="10.00" fill="#000000">Date</text>
<polygon fill="none" stroke="#000000" points="257.1923,-62 257.1923,-84 285.1923,-84 285.1923,-62 257.1923,-62"/>
<text text-anchor="start" x="262.1923" y="-70" font-family="Times,serif" font-size="10.00" fill="#000000">..</text>
</g>
<!-- Date&#45;&gt;Event -->
<g id="edge4" class="edge">
<title>Date-&gt;Event</title>
<path fill="none" stroke="#000000" d="M298.5172,-92.5111C317.0434,-98.4392 342.0102,-106.7363 363.6923,-115 372.3368,-118.2946 381.5409,-122.0782 390.1676,-125.75"/>
<polygon fill="#000000" stroke="#000000" points="390.418,-125.8579 397.8203,-133.9485 395.0097,-127.8369 399.6014,-129.8159 399.6014,-129.8159 399.6014,-129.8159 395.0097,-127.8369 401.3825,-125.6834 390.418,-125.8579 390.418,-125.8579"/>
</g>
<!-- Board -->
<g id="node6" class="node">
<title>Board</title>
<polygon fill="#add8e6" stroke="transparent" points="254.1923,-22 254.1923,-44 288.1923,-44 288.1923,-22 254.1923,-22"/>
<polygon fill="none" stroke="#000000" points="254.1923,-22 254.1923,-44 288.1923,-44 288.1923,-22 254.1923,-22"/>
<text text-anchor="start" x="258.9738" y="-30" font-family="Times,serif" font-size="10.00" fill="#000000">Board</text>
<polygon fill="none" stroke="#000000" points="254.1923,0 254.1923,-22 288.1923,-22 288.1923,0 254.1923,0"/>
<text text-anchor="start" x="259.1923" y="-8" font-family="Times,serif" font-size="10.00" fill="#000000">..</text>
</g>
<!-- Board&#45;&gt;Event -->
<g id="edge5" class="edge">
<title>Board-&gt;Event</title>
<path fill="none" stroke="#000000" d="M298.4007,-26.4331C318.0397,-30.6858 344.3886,-38.6548 363.6923,-53 385.3683,-69.1081 402.4497,-94.9008 413.3261,-114.5825"/>
<polygon fill="#000000" stroke="#000000" points="413.4695,-114.8525 414.1856,-125.795 415.8147,-119.2684 418.1599,-123.6843 418.1599,-123.6843 418.1599,-123.6843 415.8147,-119.2684 422.1342,-121.5736 413.4695,-114.8525 413.4695,-114.8525"/>
</g>
<!-- Categorized_User -->
<g id="node9" class="node">
<title>Categorized_User</title>
<polygon fill="#add8e6" stroke="transparent" points="707.3812,-244 707.3812,-266 884.3812,-266 884.3812,-244 707.3812,-244"/>
<polygon fill="none" stroke="#000000" points="707.3812,-244 707.3812,-266 884.3812,-266 884.3812,-244 707.3812,-244"/>
<text text-anchor="start" x="761.0372" y="-252" font-family="Times,serif" font-size="10.00" fill="#000000">Categorized User</text>
<polygon fill="#add8e6" stroke="transparent" points="707.3812,-222 707.3812,-244 772.3812,-244 772.3812,-222 707.3812,-222"/>
<polygon fill="none" stroke="#000000" points="707.3812,-222 707.3812,-244 772.3812,-244 772.3812,-222 707.3812,-222"/>
<text text-anchor="start" x="727.9432" y="-230" font-family="Times,serif" font-size="10.00" fill="#000000">Name</text>
<polygon fill="#add8e6" stroke="transparent" points="772.3812,-222 772.3812,-244 828.3812,-244 828.3812,-222 772.3812,-222"/>
<polygon fill="none" stroke="#000000" points="772.3812,-222 772.3812,-244 828.3812,-244 828.3812,-222 772.3812,-222"/>
<text text-anchor="start" x="777.0522" y="-230" font-family="Times,serif" font-size="10.00" fill="#000000">2020-01-01</text>
<polygon fill="#add8e6" stroke="transparent" points="828.3812,-222 828.3812,-244 884.3812,-244 884.3812,-222 828.3812,-222"/>
<polygon fill="none" stroke="#000000" points="828.3812,-222 828.3812,-244 884.3812,-244 884.3812,-222 828.3812,-222"/>
<text text-anchor="start" x="833.0522" y="-230" font-family="Times,serif" font-size="10.00" fill="#000000">2020-03-15</text>
<polygon fill="none" stroke="#000000" points="707.3812,-200 707.3812,-222 772.3812,-222 772.3812,-200 707.3812,-200"/>
<text text-anchor="start" x="712.3812" y="-208" font-family="Times,serif" font-size="10.00" fill="#000000">User ID</text>
<polygon fill="none" stroke="#000000" points="772.3812,-200 772.3812,-222 828.3812,-222 828.3812,-200 772.3812,-200"/>
<text text-anchor="start" x="777.3812" y="-208" font-family="Times,serif" font-size="10.00" fill="#000000">U1</text>
<polygon fill="none" stroke="#000000" points="828.3812,-200 828.3812,-222 884.3812,-222 884.3812,-200 828.3812,-200"/>
<text text-anchor="start" x="833.3812" y="-208" font-family="Times,serif" font-size="10.00" fill="#000000">U1</text>
<polygon fill="none" stroke="#000000" points="707.3812,-178 707.3812,-200 772.3812,-200 772.3812,-178 707.3812,-178"/>
<text text-anchor="start" x="712.3812" y="-186" font-family="Times,serif" font-size="10.00" fill="#000000">Plan type</text>
<polygon fill="none" stroke="#000000" points="772.3812,-178 772.3812,-200 828.3812,-200 828.3812,-178 772.3812,-178"/>
<text text-anchor="start" x="777.3812" y="-186" font-family="Times,serif" font-size="10.00" fill="#000000">..</text>
<polygon fill="none" stroke="#000000" points="828.3812,-178 828.3812,-200 884.3812,-200 884.3812,-178 828.3812,-178"/>
<text text-anchor="start" x="833.3812" y="-186" font-family="Times,serif" font-size="10.00" fill="#000000">..</text>
<polygon fill="none" stroke="#000000" points="707.3812,-156 707.3812,-178 772.3812,-178 772.3812,-156 707.3812,-156"/>
<text text-anchor="start" x="711.9807" y="-164" font-family="Times,serif" font-size="10.00" fill="#000000">User category</text>
<polygon fill="none" stroke="#000000" points="772.3812,-156 772.3812,-178 828.3812,-178 828.3812,-156 772.3812,-156"/>
<text text-anchor="start" x="777.3812" y="-164" font-family="Times,serif" font-size="10.00" fill="#000000">Casual</text>
<polygon fill="none" stroke="#000000" points="828.3812,-156 828.3812,-178 884.3812,-178 884.3812,-156 828.3812,-156"/>
<text text-anchor="start" x="833.3812" y="-164" font-family="Times,serif" font-size="10.00" fill="#000000">Core</text>
<polygon fill="none" stroke="#000000" points="707.3812,-134 707.3812,-156 772.3812,-156 772.3812,-134 707.3812,-134"/>
<text text-anchor="start" x="720.4452" y="-142" font-family="Times,serif" font-size="10.00" fill="#000000">start_date</text>
<polygon fill="none" stroke="#000000" points="772.3812,-134 772.3812,-156 828.3812,-156 828.3812,-134 772.3812,-134"/>
<text text-anchor="start" x="777.0522" y="-142" font-family="Times,serif" font-size="10.00" fill="#000000">2020-01-01</text>
<polygon fill="none" stroke="#000000" points="828.3812,-134 828.3812,-156 884.3812,-156 884.3812,-134 828.3812,-134"/>
<text text-anchor="start" x="833.0522" y="-142" font-family="Times,serif" font-size="10.00" fill="#000000">2020-03-15</text>
<polygon fill="none" stroke="#000000" points="707.3812,-112 707.3812,-134 772.3812,-134 772.3812,-112 707.3812,-112"/>
<text text-anchor="start" x="721.8332" y="-120" font-family="Times,serif" font-size="10.00" fill="#000000">end_date</text>
<polygon fill="none" stroke="#000000" points="772.3812,-112 772.3812,-134 828.3812,-134 828.3812,-112 772.3812,-112"/>
<text text-anchor="start" x="777.0522" y="-120" font-family="Times,serif" font-size="10.00" fill="#000000">2020-03-15</text>
<polygon fill="none" stroke="#000000" points="828.3812,-112 828.3812,-134 884.3812,-134 884.3812,-112 828.3812,-112"/>
<text text-anchor="start" x="847.4927" y="-120" font-family="Times,serif" font-size="10.00" fill="#000000">Null</text>
<polygon fill="none" stroke="#000000" points="707.3812,-90 707.3812,-112 772.3812,-112 772.3812,-90 707.3812,-90"/>
<text text-anchor="start" x="712.1202" y="-98" font-family="Times,serif" font-size="10.00" fill="#000000">curent_record</text>
<polygon fill="none" stroke="#000000" points="772.3812,-90 772.3812,-112 828.3812,-112 828.3812,-90 772.3812,-90"/>
<text text-anchor="start" x="789.8287" y="-98" font-family="Times,serif" font-size="10.00" fill="#000000">False</text>
<polygon fill="none" stroke="#000000" points="828.3812,-90 828.3812,-112 884.3812,-112 884.3812,-90 828.3812,-90"/>
<text text-anchor="start" x="846.9427" y="-98" font-family="Times,serif" font-size="10.00" fill="#000000">True</text>
</g>
<!-- Transformation&#45;&gt;Categorized_User -->
<g id="edge7" class="edge">
<title>Transformation-&gt;Categorized_User</title>
<path fill="none" stroke="#000000" d="M612.955,-147.4676C635.3395,-151.2141 666.3157,-156.3985 696.3933,-161.4326"/>
<polygon fill="#000000" stroke="#000000" points="696.1048,-164.9329 706.5454,-163.1317 697.2604,-158.0289 696.1048,-164.9329"/>
</g>
<!-- Aggregation -->
<g id="node8" class="node">
<title>Aggregation</title>
<ellipse fill="#add8e6" stroke="#000000" cx="946.3892" cy="-178" rx="26.516" ry="26.516"/>
<text text-anchor="middle" x="946.3892" y="-175" font-family="Times,serif" font-size="10.00" fill="#000000">Aggregation</text>
</g>
<!-- Agg_Event -->
<g id="node10" class="node">
<title>Agg_Event</title>
<polygon fill="#add8e6" stroke="transparent" points="1008.8972,-211 1008.8972,-233 1118.8972,-233 1118.8972,-211 1008.8972,-211"/>
<polygon fill="none" stroke="#000000" points="1008.8972,-211 1008.8972,-233 1118.8972,-233 1118.8972,-211 1008.8972,-211"/>
<text text-anchor="start" x="1013.6437" y="-219" font-family="Times,serif" font-size="10.00" fill="#000000">Engaged User Aggregate</text>
<polygon fill="none" stroke="#000000" points="1008.8972,-189 1008.8972,-211 1118.8972,-211 1118.8972,-189 1008.8972,-189"/>
<text text-anchor="start" x="1013.8972" y="-197" font-family="Times,serif" font-size="10.00" fill="#000000">Date</text>
<polygon fill="none" stroke="#000000" points="1008.8972,-167 1008.8972,-189 1118.8972,-189 1118.8972,-167 1008.8972,-167"/>
<text text-anchor="start" x="1013.8972" y="-175" font-family="Times,serif" font-size="10.00" fill="#000000">User Catgory</text>
<polygon fill="none" stroke="#000000" points="1008.8972,-145 1008.8972,-167 1118.8972,-167 1118.8972,-145 1008.8972,-145"/>
<text text-anchor="start" x="1013.8972" y="-153" font-family="Times,serif" font-size="10.00" fill="#000000">Plan type</text>
<polygon fill="none" stroke="#000000" points="1008.8972,-123 1008.8972,-145 1118.8972,-145 1118.8972,-123 1008.8972,-123"/>
<text text-anchor="start" x="1013.8972" y="-131" font-family="Times,serif" font-size="10.00" fill="#000000"># User</text>
</g>
<!-- Aggregation&#45;&gt;Agg_Event -->
<g id="edge9" class="edge">
<title>Aggregation-&gt;Agg_Event</title>
<path fill="none" stroke="#000000" d="M973.0536,-178C980.7286,-178 989.4575,-178 998.3974,-178"/>
<polygon fill="#000000" stroke="#000000" points="998.5358,-181.5001 1008.5358,-178 998.5357,-174.5001 998.5358,-181.5001"/>
</g>
<!-- Categorized_User&#45;&gt;Aggregation -->
<g id="edge8" class="edge">
<title>Categorized_User-&gt;Aggregation</title>
<path fill="none" stroke="#000000" d="M884.0966,-178C893.0124,-178 901.6744,-178 909.5645,-178"/>
<polygon fill="#000000" stroke="#000000" points="909.7965,-181.5001 919.7965,-178 909.7965,-174.5001 909.7965,-181.5001"/>
</g>
<!-- Workspace_comment -->
<g id="node11" class="node">
<title>Workspace_comment</title>
<polygon fill="#ffff00" stroke="#000000" points="136.5388,-338 .1535,-338 .1535,-302 142.5388,-302 142.5388,-332 136.5388,-338"/>
<polyline fill="none" stroke="#000000" points="136.5388,-338 136.5388,-332 "/>
<polyline fill="none" stroke="#000000" points="142.5388,-332 136.5388,-332 "/>
<text text-anchor="middle" x="71.3461" y="-322.7" font-family="Times,serif" font-size="9.00" fill="#000000">Not key/value store</text>
<text text-anchor="middle" x="71.3461" y="-311.9" font-family="Times,serif" font-size="9.00" fill="#000000">Represented this way to conserve space</text>
</g>
<!-- Workspace_comment&#45;&gt;Workspace -->
<g id="edge10" class="edge">
<title>Workspace_comment-&gt;Workspace</title>
<path fill="none" stroke="#000000" stroke-dasharray="5,2" d="M142.6488,-320C154.3068,-320 166.5323,-320 178.6139,-320"/>
</g>
<!-- Categorized_User_comment -->
<g id="node12" class="node">
<title>Categorized_User_comment</title>
<polygon fill="#ffff00" stroke="#000000" points="664.9757,-235.4019 489.5978,-235.4019 489.5978,-192.5981 670.9757,-192.5981 670.9757,-229.4019 664.9757,-235.4019"/>
<polyline fill="none" stroke="#000000" points="664.9757,-235.4019 664.9757,-229.4019 "/>
<polyline fill="none" stroke="#000000" points="670.9757,-229.4019 664.9757,-229.4019 "/>
<text text-anchor="middle" x="580.2868" y="-227.1" font-family="Times,serif" font-size="9.00" fill="#000000">User categoy changed on 03/12</text>
<text text-anchor="middle" x="580.2868" y="-206.3" font-family="Times,serif" font-size="9.00" fill="#000000">Now user categorization logic changes</text>
<text text-anchor="middle" x="580.2868" y="-195.5" font-family="Times,serif" font-size="9.00" fill="#000000">Restatement is asked for period 01-Mar to 31-Mar</text>
</g>
<!-- Categorized_User_comment&#45;&gt;Categorized_User -->
<g id="edge11" class="edge">
<title>Categorized_User_comment-&gt;Categorized_User</title>
<path fill="none" stroke="#000000" stroke-dasharray="5,2" d="M670.8828,-198.8371C682.7084,-196.8579 694.8145,-194.8317 706.6097,-192.8575"/>
</g>
</g>
</svg>